<svg width="146" height="178" viewBox="0 0 146 178" fill="none" xmlns="http://www.w3.org/2000/svg">
<path d="M8.98475 4.112H16.2808L21.6248 26H17.9128L16.7928 21.424H8.50475L7.38475 26H3.67275L8.98475 4.112ZM9.24075 18.16H16.0568L13.4328 7.184H11.8648L9.24075 18.16ZM30.5052 26.352C29.5026 26.352 28.4786 26.3093 27.4333 26.224C26.4093 26.1387 25.3853 26.0427 24.3613 25.936V3.44H28.1053V10.544C28.9373 10.224 29.6413 9.98933 30.2173 9.84C30.7933 9.69067 31.4333 9.616 32.1373 9.616C33.2039 9.616 34.1106 9.776 34.8573 10.096C35.6253 10.3947 36.2546 10.8853 36.7453 11.568C37.2359 12.2293 37.5986 13.0933 37.8333 14.16C38.0679 15.2053 38.1853 16.4747 38.1853 17.968C38.1853 19.504 38.0466 20.8053 37.7693 21.872C37.5133 22.9387 37.0759 23.8027 36.4573 24.464C35.8599 25.1253 35.0706 25.6053 34.0893 25.904C33.1079 26.2027 31.9133 26.352 30.5052 26.352ZM30.4413 23.024C31.1879 23.024 31.8066 22.9387 32.2973 22.768C32.8093 22.576 33.2146 22.2773 33.5133 21.872C33.8333 21.4667 34.0573 20.944 34.1853 20.304C34.3346 19.664 34.4093 18.8853 34.4093 17.968C34.4093 16.1333 34.1639 14.8427 33.6733 14.096C33.2039 13.3493 32.4039 12.976 31.2733 12.976C30.4839 12.976 29.4279 13.1573 28.1053 13.52V22.896C28.5319 22.9387 28.9693 22.9707 29.4173 22.992C29.8653 23.0133 30.2066 23.024 30.4413 23.024ZM40.056 21.296C40.056 19.632 40.472 18.4373 41.304 17.712C42.1573 16.9653 43.5227 16.5173 45.4 16.368L49.336 16.048V14.928C49.336 14.1813 49.1653 13.648 48.824 13.328C48.504 12.9867 47.9707 12.816 47.224 12.816C46.2 12.816 45.176 12.848 44.152 12.912C43.1493 12.9547 42.136 13.0293 41.112 13.136L41.016 10.48C42.168 10.2027 43.2667 9.98933 44.312 9.84C45.3573 9.69067 46.3493 9.616 47.288 9.616C49.336 9.616 50.808 10.0427 51.704 10.896C52.6213 11.7493 53.08 13.0933 53.08 14.928V22.032C53.1227 22.5227 53.2293 22.8747 53.4 23.088C53.592 23.28 53.912 23.4187 54.36 23.504L54.232 26.384C53.1867 26.384 52.344 26.2987 51.704 26.128C51.064 25.9573 50.456 25.648 49.88 25.2C48.1733 25.9893 46.5093 26.384 44.888 26.384C43.2667 26.384 42.0507 25.9573 41.24 25.104C40.4507 24.2293 40.056 22.96 40.056 21.296ZM45.784 23.28C46.2107 23.28 46.6693 23.248 47.16 23.184C47.672 23.0987 48.2053 22.9707 48.76 22.8L49.336 22.64V18.672L45.848 18.992C44.4827 19.12 43.8 19.8773 43.8 21.264C43.8 22.608 44.4613 23.28 45.784 23.28ZM56.504 10H60.216V10.928C61.0907 10.4373 61.8587 10.096 62.52 9.904C63.1813 9.712 63.8853 9.616 64.632 9.616C65.656 9.616 66.5093 9.78667 67.192 10.128C67.896 10.448 68.4613 10.9387 68.888 11.6C69.3147 12.24 69.6133 13.0507 69.784 14.032C69.976 14.992 70.072 16.1013 70.072 17.36V25.968H66.328V17.488C66.328 16.7627 66.2853 16.1227 66.2 15.568C66.136 15.0133 66.008 14.544 65.816 14.16C65.624 13.776 65.3573 13.488 65.016 13.296C64.696 13.0827 64.2693 12.976 63.736 12.976C63.1813 12.976 62.5627 13.0613 61.88 13.232C61.2187 13.3813 60.6747 13.5413 60.248 13.712V25.968H56.504V10Z" fill="#95BCCC"/>
<path d="M77.1113 4.112H85.5593C87.8206 4.112 89.4953 4.58133 90.5833 5.52C91.6713 6.43733 92.2153 7.92 92.2153 9.968C92.2153 11.1413 92.0126 12.1013 91.6073 12.848C91.2019 13.5733 90.5513 14.2133 89.6553 14.768C90.7006 15.1733 91.4686 15.7813 91.9593 16.592C92.4499 17.4027 92.6953 18.4693 92.6953 19.792C92.6953 21.904 92.1086 23.472 90.9353 24.496C89.7619 25.4987 88.0446 26 85.7833 26H77.1113V4.112ZM85.4633 13.36C87.4686 13.36 88.4713 12.3573 88.4713 10.352C88.4713 9.328 88.2259 8.58133 87.7353 8.112C87.2446 7.62133 86.4553 7.376 85.3673 7.376H80.8873V13.36H85.4633ZM85.5913 22.704C86.7433 22.704 87.5859 22.48 88.1193 22.032C88.6526 21.5627 88.9193 20.8053 88.9193 19.76C88.9193 17.6693 87.7886 16.624 85.5273 16.624H80.8873V22.704H85.5913ZM95.2785 18C95.2785 16.72 95.4172 15.568 95.6945 14.544C95.9932 13.4987 96.4305 12.6133 97.0065 11.888C97.6038 11.1627 98.3505 10.608 99.2465 10.224C100.164 9.81867 101.241 9.616 102.479 9.616C104.911 9.616 106.713 10.3627 107.887 11.856C109.081 13.328 109.679 15.376 109.679 18C109.679 19.3013 109.529 20.4747 109.231 21.52C108.953 22.544 108.516 23.4187 107.919 24.144C107.343 24.8693 106.596 25.424 105.679 25.808C104.783 26.192 103.716 26.384 102.479 26.384C100.025 26.384 98.2118 25.6587 97.0385 24.208C95.8652 22.736 95.2785 20.6667 95.2785 18ZM99.0865 18C99.0865 19.7067 99.3318 20.9973 99.8225 21.872C100.313 22.7467 101.199 23.184 102.479 23.184C103.716 23.184 104.591 22.7573 105.103 21.904C105.615 21.0507 105.871 19.7387 105.871 17.968C105.871 16.304 105.625 15.0347 105.135 14.16C104.644 13.264 103.759 12.816 102.479 12.816C101.241 12.816 100.367 13.2427 99.8545 14.096C99.3425 14.9493 99.0865 16.2507 99.0865 18ZM112.122 18C112.122 16.72 112.261 15.568 112.538 14.544C112.837 13.4987 113.274 12.6133 113.85 11.888C114.448 11.1627 115.194 10.608 116.09 10.224C117.008 9.81867 118.085 9.616 119.322 9.616C121.754 9.616 123.557 10.3627 124.73 11.856C125.925 13.328 126.522 15.376 126.522 18C126.522 19.3013 126.373 20.4747 126.074 21.52C125.797 22.544 125.36 23.4187 124.762 24.144C124.186 24.8693 123.44 25.424 122.522 25.808C121.626 26.192 120.56 26.384 119.322 26.384C116.869 26.384 115.056 25.6587 113.882 24.208C112.709 22.736 112.122 20.6667 112.122 18ZM115.93 18C115.93 19.7067 116.176 20.9973 116.666 21.872C117.157 22.7467 118.042 23.184 119.322 23.184C120.56 23.184 121.434 22.7573 121.946 21.904C122.458 21.0507 122.714 19.7387 122.714 17.968C122.714 16.304 122.469 15.0347 121.978 14.16C121.488 13.264 120.602 12.816 119.322 12.816C118.085 12.816 117.21 13.2427 116.698 14.096C116.186 14.9493 115.93 16.2507 115.93 18ZM129.766 3.44H133.51V16.4L135.366 16.176L138.95 10H143.142L138.694 17.52L143.366 26H139.174L135.494 19.408L133.51 19.632V26H129.766V3.44Z" fill="#191919"/>
<path d="M71.9784 178C107.728 178 136.71 175.474 136.71 172.358C136.71 169.242 107.728 166.716 71.9784 166.716C36.2283 166.716 7.24713 169.242 7.24713 172.358C7.24713 175.474 36.2283 178 71.9784 178Z" fill="#FCDCDC"/>
<path d="M42.6468 100.145C43.1814 100.523 43.2853 101.324 44.2848 101.528C43.2869 101.771 43.1489 102.544 42.658 102.992C42.6397 102.898 42.6217 102.804 42.6034 102.709C42.5664 102.637 42.5294 102.565 42.4927 102.493L42.5133 102.485C42.375 102.033 42.0935 101.74 41.6113 101.669C41.5929 101.585 41.5743 101.5 41.5556 101.416C42.2608 101.283 42.5931 100.829 42.6484 100.137L42.6468 100.145Z" fill="url(#paint0_linear_94_73755)"/>
<path d="M73.2452 63.766C72.4966 64.0117 72.2586 64.5747 71.99 65.1776C71.8758 64.5208 71.5882 64.0549 70.9313 63.7844C71.509 63.4713 71.8989 63.0611 71.99 62.2721C72.2277 63.0173 72.5561 63.5045 73.2452 63.766Z" fill="url(#paint1_linear_94_73755)"/>
<path d="M54.1614 80.0947C54.2264 79.9567 54.3914 79.8145 54.144 79.6907C54.5066 79.4246 54.688 79.0467 54.819 78.4193C55.0535 79.1441 55.3433 79.6365 56.0793 79.8754C55.3771 80.1685 55.0451 80.6051 54.864 81.4525C54.69 80.785 54.5092 80.3842 54.1614 80.0947Z" fill="url(#paint2_linear_94_73755)"/>
<path d="M53.3032 136.629C53.4869 137.469 54.0701 137.923 54.9892 138.26C53.8208 138.612 53.364 139.458 53.0564 140.537C52.9654 140.052 52.9094 139.683 52.6971 139.366C52.4922 138.898 52.0566 138.751 51.6317 138.585C51.4541 138.516 51.3534 138.351 51.355 138.185C51.3579 137.848 51.595 138.108 51.7172 138.067C52.6147 137.762 52.8792 136.995 53.058 136.069C53.1681 136.321 53.2356 136.475 53.3032 136.629Z" fill="url(#paint3_linear_94_73755)"/>
<path d="M62.9607 92.1663C61.9023 92.4098 61.5864 93.2672 61.3239 94.1935C61.11 93.7028 61.1193 93.1414 60.6783 92.7903C60.5908 92.6942 60.5036 92.5978 60.4168 92.5014C60.2733 92.3137 60.0854 92.2089 59.849 92.1934C59.691 92.1425 59.5331 92.0919 59.3748 92.0409L59.4009 91.9961L59.3584 91.9651C59.5212 91.9161 59.6843 91.8677 59.8474 91.8194C60.1494 91.791 60.3733 91.6295 60.5567 91.3992C60.6178 91.3164 60.6789 91.2335 60.7401 91.151L60.7314 91.1706C60.7989 91.0523 60.8668 90.9339 60.9344 90.8156L60.9164 90.8314C61.0943 90.6747 61.1341 90.4661 61.1361 90.2433C61.1846 90.1423 61.2332 90.0417 61.3014 89.9005C61.5472 90.3403 61.5205 90.9288 62.031 91.1906L62.0432 91.2032C62.0818 91.7794 62.933 91.5792 62.9607 92.1663Z" fill="url(#paint4_linear_94_73755)"/>
<path d="M86.873 79.0222C86.7836 79.1628 86.6784 79.2963 86.6089 79.4466C86.5397 79.5965 86.5063 79.7629 86.4175 80.0518C86.1006 79.3673 86.016 78.6482 85.3456 78.3341C85.262 78.2077 85.1378 78.1768 84.9966 78.1861L85.0107 78.1952C85.1774 78.0278 84.3094 78.0791 84.9348 77.7879C85.5528 77.5003 86.0212 77.0556 86.0588 76.3053C86.2116 76.2579 86.2534 76.1473 86.2316 76.0006C86.3435 75.9974 86.4828 75.9767 86.5105 76.1199C86.6993 77.0947 87.4118 77.5864 88.2138 77.9994C87.6418 78.1761 87.261 78.6037 86.873 79.0222Z" fill="url(#paint5_linear_94_73755)"/>
<path d="M48.4134 126.895C48.2683 126.851 48.1725 126.766 48.1725 126.602C49.2386 126.478 49.5673 125.66 49.8765 124.604C50.2056 125.68 50.6662 126.453 51.8623 126.7C50.7637 127.071 50.1795 127.657 50.0312 128.619C49.8179 128.783 49.8179 128.783 49.6758 128.375C49.5535 127.626 49.1392 127.127 48.4134 126.895Z" fill="url(#paint6_linear_94_73755)"/>
<path d="M86.2078 106.866C85.3482 107.136 85.1591 107.908 84.8696 108.714C84.3616 107.9 84.2818 106.745 82.9594 106.7C84.1145 106.355 84.6434 105.598 84.8258 104.322C85.1652 105.486 85.5589 106.346 86.6771 106.528C86.5208 106.64 86.3641 106.753 86.2078 106.866Z" fill="url(#paint7_linear_94_73755)"/>
<path d="M60.9489 117.434C60.8488 117.668 60.7485 117.902 60.6172 118.21C60.4052 117.184 59.9996 116.377 58.799 116.058C59.3736 115.817 59.8432 115.66 60.0851 115.209C60.4293 114.878 60.4618 114.405 60.6481 113.902C60.9135 114.908 61.379 115.667 62.4592 116.032C61.7261 116.369 61.1663 116.733 60.9489 117.434Z" fill="url(#paint8_linear_94_73755)"/>
<path d="M71.0821 111.474C70.2889 111.814 69.926 112.302 69.6834 113.172C69.4563 112.327 69.1736 111.777 68.2767 111.505C69.1575 111.195 69.5113 110.687 69.6744 109.978C69.8941 110.671 70.2577 111.187 71.0821 111.474Z" fill="url(#paint9_linear_94_73755)"/>
<path d="M83.8227 91.8884C83.7729 92.0632 83.6345 92.1477 83.4859 92.2209C82.9332 92.4427 82.8004 93.0005 82.526 93.4587C82.4365 93.3294 82.359 93.2169 82.2815 93.1044C82.2458 92.485 81.7546 92.2808 81.1996 91.9903C81.9839 91.7043 82.4111 91.1997 82.4517 90.4197C82.4803 90.3926 82.5028 90.3613 82.5202 90.3259C82.7023 91.0585 82.9854 91.7056 83.8227 91.8884Z" fill="url(#paint10_linear_94_73755)"/>
<path d="M99.9933 122.646C100.383 122.341 100.278 121.798 100.584 121.382C100.796 122.42 101.294 123.165 102.411 123.485C101.517 123.847 100.89 124.354 100.721 125.267C100.586 125.632 100.457 125.63 100.384 125.247C100.211 124.345 99.6481 123.812 98.7625 123.524C99.2341 123.273 99.7546 123.149 99.9933 122.646Z" fill="url(#paint11_linear_94_73755)"/>
<path d="M93.71 132.7C92.8276 133.021 92.4966 133.535 92.2247 134.346C91.9899 133.564 91.7039 132.997 90.8264 132.739C91.6653 132.445 92.0533 131.941 92.1987 130.964C92.4622 131.872 92.7697 132.433 93.71 132.7Z" fill="url(#paint12_linear_94_73755)"/>
<path d="M54.4748 105.73C53.6634 106.022 53.3225 106.599 53.0638 107.43C52.8949 106.553 52.5459 105.982 51.6426 105.731C52.5475 105.48 52.912 104.939 53.0551 104.077C53.3257 104.861 53.6647 105.444 54.4748 105.73Z" fill="url(#paint13_linear_94_73755)"/>
<path d="M85.1552 118.183C85.8041 117.876 86.2441 117.536 86.3574 116.849C86.6031 117.418 86.8952 117.882 87.5817 118.117C86.9416 118.438 86.5816 118.844 86.3902 119.677C86.1682 118.862 85.9221 118.337 85.1552 118.183Z" fill="url(#paint14_linear_94_73755)"/>
<path d="M66.3201 138.344L66.3214 138.347C65.6944 138.502 65.4023 138.974 65.1675 139.842C64.9918 139.016 64.7477 138.528 63.9952 138.308C64.6216 137.999 64.9983 137.62 65.1717 137.021C65.3682 137.662 65.8742 137.976 66.3201 138.344Z" fill="url(#paint15_linear_94_73755)"/>
<path d="M72.4976 98.0684C72.7611 98.742 73.0226 99.2099 73.8687 99.4159C73.0593 99.6516 72.7518 100.103 72.5253 100.785C72.2551 100.187 72.0656 99.6349 71.1555 99.4736C71.9765 99.2221 72.2853 98.7801 72.4976 98.0684Z" fill="url(#paint16_linear_94_73755)"/>
<path d="M73.5482 153.776C73.3931 153.23 72.7157 153.181 72.5107 152.682C73.3188 152.527 73.6035 151.944 73.7267 151.141C74.0352 151.826 74.2868 152.503 75.2419 152.759C74.3836 153.062 74.0478 153.604 73.8033 154.335C73.682 154.07 73.6151 153.923 73.5482 153.776Z" fill="url(#paint17_linear_94_73755)"/>
<path d="M75.0283 129.546C74.9797 129.674 74.9312 129.803 74.8144 130.113C74.5625 128.959 74.1585 128.105 72.8186 127.857C74.1015 127.59 74.5821 126.844 74.8244 125.817C75.1017 126.784 75.6247 127.504 76.565 127.85C76.5502 127.874 76.5383 127.901 76.5197 127.922C76.501 127.943 76.4756 127.958 76.4534 127.975C75.6662 128.213 75.23 128.773 75.0283 129.546Z" fill="url(#paint18_linear_94_73755)"/>
<path d="M102.729 112.876C102.739 112.092 102.005 111.861 101.616 111.373C102.412 111.268 102.622 110.642 102.84 109.918C103.108 110.595 103.38 111.192 104.245 111.457C103.359 111.735 103.377 112.585 102.835 112.989C102.829 112.993 102.793 112.965 102.776 112.947C102.757 112.926 102.744 112.9 102.729 112.876Z" fill="url(#paint19_linear_94_73755)"/>
<path d="M90.4355 147.342C90.2808 146.377 89.9227 145.84 89.0625 145.564C89.9227 145.309 90.2923 144.776 90.4342 143.875C90.6822 144.714 91.0335 145.283 91.8677 145.56C91.0303 145.875 90.6825 146.442 90.4355 147.342Z" fill="url(#paint20_linear_94_73755)"/>
<path d="M48.3105 95.8062C48.8416 95.622 48.6879 94.9359 49.1289 94.6857C49.375 94.3029 49.7395 94.1036 50.1715 94.0088C50.1516 93.7067 49.8308 93.7367 49.6887 93.5693C48.8796 93.2376 48.7178 92.4479 48.4199 91.5679C48.2369 92.8184 47.7402 93.6197 46.4219 93.9066C47.6372 94.1836 48.1693 94.8201 48.3105 95.8062Z" fill="#B7D9E5"/>
<path d="M38.292 114.565C38.2081 114.758 38.1531 114.884 38.0984 115.01C37.9433 115.565 37.4962 115.823 36.9728 116.059C37.9012 116.181 37.9758 117.046 38.4281 117.556C38.5179 117.079 38.6617 116.635 39.1445 116.403C39.1999 116.358 39.2552 116.312 39.3105 116.267C39.4321 116.218 39.554 116.168 39.676 116.118C39.6518 116.039 39.6277 115.96 39.6033 115.882C38.7932 115.858 38.7051 115.059 38.292 114.565Z" fill="#B7D9E5"/>
<path d="M66.2976 70.6748C66.6 69.9357 66.9288 69.3524 67.8047 69.038C66.8811 68.7968 66.5591 68.2126 66.3121 67.4197C66.1078 68.2371 65.8257 68.841 64.9796 69.0648C65.8208 69.2641 66.0576 69.9093 66.2976 70.6748Z" fill="#B7D9E5"/>
<path d="M53.1442 81.4906C53.3395 80.7657 53.6001 80.3033 54.1614 80.0947C54.2264 79.9567 54.3914 79.8145 54.144 79.6907C53.4762 79.4849 53.3501 78.8494 53.0561 78.2526C52.8978 79.0245 52.597 79.6255 51.814 79.9054C52.5922 80.1453 52.7965 80.7915 53.1442 81.4906Z" fill="#B7D9E5"/>
<path d="M100.384 125.247C100.211 124.345 99.6484 123.812 98.7628 123.524C99.2341 123.273 99.7546 123.149 99.9933 122.646C99.0726 120.82 98.0027 119.111 96.399 117.787C93.8586 115.69 90.9354 114.63 87.6664 114.472C87.4669 114.463 87.2681 114.442 87.0693 114.426C85.5352 114.522 84.0049 114.59 82.4968 114.975C80.896 115.383 79.3033 115.811 77.7714 116.426C74.7971 117.619 71.888 119.018 68.6923 119.535C65.818 120 63.0643 119.857 60.9489 117.435C60.8488 117.669 60.7484 117.903 60.6172 118.21C60.4052 117.184 59.9995 116.377 58.7993 116.058C59.3739 115.817 59.8435 115.661 60.0854 115.209C59.5447 111.639 61.9863 107.77 65.3795 106.82C68.6708 105.899 71.805 108.756 71.1967 112.122C70.9426 113.529 69.9128 114.102 68.59 113.564C68.1101 113.368 67.6655 113.107 67.2627 112.775C66.9011 112.476 66.5289 112.191 66.0454 111.808C66.1111 112.547 66.36 113.033 66.5736 113.527C67.6558 116.032 69.2595 117.064 71.9739 116.9C74.4451 116.751 76.5001 115.635 78.3074 113.991C80.6959 111.818 81.817 109.071 81.6424 105.901C81.5214 103.702 80.6708 101.658 79.4587 99.7951C77.2696 96.4317 74.3062 94.044 70.5327 92.6762C68.0428 91.9955 65.5162 91.8646 62.9607 92.1671C61.9024 92.4105 61.5865 93.2679 61.324 94.1943C61.11 93.7035 61.1194 93.1421 60.679 92.7907C60.5181 92.8229 60.3573 92.8552 60.1964 92.8874C59.5193 93.1741 58.8421 93.4607 58.1653 93.7477C57.9816 93.8505 57.7979 93.9537 57.6142 94.0566C57.1735 94.3116 56.7328 94.5664 56.292 94.8214L56.2669 94.8066C56.2007 94.951 56.1038 95.0439 55.9301 95.0084L55.9324 95.0246C55.8709 95.2928 55.6422 95.377 55.4325 95.4821C55.1169 95.7588 54.8016 96.0354 54.4861 96.3121C53.8083 97.0708 53.1301 97.8295 52.4523 98.5886C52.4041 98.644 52.3561 98.6998 52.3079 98.7553C51.6738 99.9167 51.0398 101.078 50.406 102.24C50.4099 102.289 50.3948 102.331 50.3613 102.367C50.1992 102.903 50.0377 103.44 49.7453 103.924C49.7166 104.039 49.6877 104.153 49.6591 104.267C49.6047 104.629 49.5275 104.983 49.3342 105.301C49.3126 105.418 49.2911 105.535 49.2692 105.652C49.2267 105.824 49.1839 105.995 49.1415 106.167C49.1048 106.286 49.0681 106.404 49.0314 106.522C48.8442 107.821 48.5856 109.115 48.4849 110.421C48.2973 112.851 48.5708 115.24 49.3808 117.553C49.4258 117.672 49.4709 117.79 49.5162 117.909L49.5613 117.966L49.514 118.013C49.4641 118.047 49.4143 118.082 49.3644 118.116C49.4217 118.537 49.9949 118.515 50.0583 118.93C50.6293 119.739 51.2006 120.547 51.7716 121.356C52.1229 121.642 52.4826 121.918 52.8236 122.215C56.1235 125.091 59.8947 126.562 64.3167 126.104C64.8146 125.917 65.3808 126.089 65.8611 125.809C65.9824 125.782 66.1037 125.756 66.2249 125.73C66.3401 125.715 66.4556 125.699 66.5708 125.684C67.1405 125.497 67.7105 125.311 68.2802 125.124C68.3989 125.076 68.5176 125.029 68.6363 124.982C68.6836 124.95 68.7354 124.931 68.792 124.926C71.2556 123.914 73.712 122.884 76.4499 122.91C80.4418 122.948 83.7433 126.002 84.0924 129.996C84.3471 132.91 82.1474 135.407 79.229 135.56C77.3391 135.659 75.5971 135.143 73.9253 134.349C72.3738 133.612 70.8531 132.809 69.319 132.036C69.2579 131.991 69.1971 131.946 69.1359 131.901L69.1411 131.914C68.9078 131.888 68.7258 131.787 68.6273 131.563C68.1885 131.573 67.7951 131.433 67.4319 131.195C67.2585 131.138 67.0851 131.08 66.9121 131.023C66.8252 130.973 66.7384 130.922 66.6515 130.872C66.5074 130.858 66.3633 130.843 66.2191 130.828L66.139 130.84L66.0599 130.825C65.6793 130.856 65.3638 130.646 65.0199 130.542C64.7053 130.523 64.389 130.518 64.0764 130.481C61.4835 130.178 59.1403 130.841 56.9763 132.267C55.3163 133.361 54.2332 134.927 53.3038 136.631C53.4875 137.471 54.0708 137.924 54.9898 138.262C53.8214 138.613 53.3646 139.46 53.0571 140.539C52.9661 140.054 52.9101 139.685 52.6978 139.367C52.4118 141.504 52.7364 143.542 53.7182 145.463C54.9274 147.828 56.781 149.231 59.5038 149.381C61.0669 149.467 62.5798 149.187 64.0976 148.9C65.7816 148.581 67.4522 148.165 69.1839 148.189C71.3534 147.918 73.4556 148.124 75.4887 148.989C78.9208 150.448 80.2005 153.713 78.6748 157.132C78.0861 158.451 77.1696 159.563 76.4531 160.8C76.5037 160.85 76.5541 160.899 76.6047 160.948C82.04 158.095 83.1128 152.106 80.666 147.505C79.608 145.516 77.7354 144.724 75.7136 144.168C73.5927 143.584 71.3768 143.399 69.2997 142.627C68.5167 142.337 67.7629 142.005 67.153 141.414C66.27 140.559 65.7385 139.604 66.3227 138.348C65.6954 138.504 65.4033 138.976 65.1688 139.844C64.9932 139.018 64.749 138.53 63.9966 138.31C64.6229 138.001 64.9996 137.622 65.173 137.023C65.3696 137.664 65.8756 137.977 66.3214 138.346C67.6436 136.769 69.3254 136.534 71.2723 136.802C73.7049 137.137 75.657 138.36 77.6228 139.686C78.98 140.601 80.2597 141.64 81.7627 142.348C82.9176 142.892 84.1226 143.199 85.3553 143.45C88.4439 143.53 91.3964 142.919 94.2283 141.693C97.2779 140.374 99.3325 138.138 100.317 134.957C101.303 131.769 101.538 128.538 100.722 125.268C100.587 125.632 100.457 125.629 100.384 125.247ZM72.4976 98.0684C72.7611 98.742 73.0226 99.2099 73.8687 99.4159C73.0593 99.6517 72.7518 100.103 72.5253 100.785C72.2551 100.187 72.0653 99.6349 71.1555 99.4737C71.9765 99.2222 72.2853 98.7801 72.4976 98.0684ZM53.0639 107.43C52.895 106.553 52.5459 105.982 51.6426 105.731C52.5475 105.48 52.912 104.939 53.0552 104.077C53.3254 104.86 53.6645 105.444 54.4745 105.729C53.6635 106.022 53.3225 106.6 53.0639 107.43ZM86.3902 119.677C86.1682 118.863 85.9222 118.337 85.1552 118.183C85.8041 117.876 86.2442 117.536 86.3574 116.85C86.6035 117.418 86.8953 117.882 87.5818 118.117C86.9416 118.438 86.5819 118.844 86.3902 119.677ZM92.2244 134.346C91.9896 133.564 91.7036 132.996 90.8264 132.739C91.6653 132.445 92.0533 131.941 92.199 130.964C92.4625 131.872 92.77 132.433 93.71 132.7C92.8273 133.021 92.4966 133.535 92.2244 134.346Z" fill="#B7D9E5"/>
<path d="M68.6254 131.56L68.6274 131.563H68.6302L68.6254 131.56Z" fill="#B7D9E5"/>
<path d="M83.6308 101.149C83.6266 101.14 83.6227 101.132 83.6185 101.124C83.6194 101.135 83.6204 101.146 83.6211 101.157L83.6308 101.149Z" fill="#B7D9E5"/>
<path d="M76.1295 89.0248C77.3632 90.9985 79.8077 92.5524 82.452 90.4201C82.4803 90.393 82.5032 90.362 82.5205 90.3266C83.2402 89.4763 83.7957 88.5528 83.8134 87.3923C83.8356 85.9361 83.0446 85.2619 81.6217 85.5602C81.0646 85.6769 80.5241 85.8739 79.8978 86.0574C79.9837 85.2235 80.3877 84.6509 81.1015 84.3342C82.6489 83.6481 84.7508 84.4003 85.5602 85.8965C86.5417 87.7118 86.3609 89.1845 84.959 90.7106C84.59 91.1124 84.202 91.4964 83.8228 91.8885C83.7729 92.0632 83.6346 92.1477 83.4853 92.2212C83.188 92.7839 82.8905 93.3469 82.5932 93.9096C82.5424 94.1027 82.4913 94.2955 82.4404 94.4887L82.4549 94.5335L82.4131 94.5641C81.8939 96.9218 82.5431 99.0626 83.6185 101.124C83.5728 100.563 83.5274 100.003 83.4814 99.4421C83.3035 97.283 83.3154 95.1642 84.9088 93.4343C85.7722 92.4969 86.856 91.8362 87.905 91.1359C90.0999 89.6704 91.4156 87.7225 91.0187 84.9782C90.6352 82.3273 89.3925 80.2114 86.8727 79.0219C86.7833 79.1625 86.6781 79.296 86.6086 79.4463C86.5394 79.5962 86.506 79.7626 86.4172 80.0515C86.1003 79.367 86.0157 78.6479 85.3453 78.3338C85.2289 78.2845 85.1127 78.2352 84.9963 78.1858L85.0104 78.1949C83.8494 78.0485 82.6901 77.8699 81.5136 77.9956C79.9821 78.1594 78.5631 78.6179 77.3931 79.6639C75.5672 81.2965 74.9968 83.4256 75.0373 85.7856C75.2699 86.9099 75.5073 88.0291 76.1295 89.0248Z" fill="#B7D9E5"/>
<path d="M49.6754 128.375C49.1141 128.003 48.6525 127.544 48.4134 126.895C48.2684 126.851 48.1725 126.766 48.1725 126.602C47.9888 126.083 47.7559 125.577 47.7475 125.01C47.6945 124.91 47.6607 124.746 47.5841 124.722C47.4052 124.667 47.4725 124.854 47.459 124.932C47.3599 125.498 47.2917 126.072 46.9079 126.539C46.831 126.78 46.8101 127.063 46.6663 127.253C46.37 127.643 46.2308 128.268 45.5314 128.165C45.5086 128.257 45.4857 128.349 45.4635 128.442C44.9916 128.923 44.2662 128.89 43.6373 129.271C45.8756 129.578 47.2637 131.237 47.5027 133.752C48.1053 131.578 49.0507 129.708 51.604 129.214C50.9895 128.982 50.5102 128.801 50.0309 128.62C49.8173 128.783 49.8173 128.783 49.6754 128.375Z" fill="#B7D9E5"/>
<path d="M65.3042 84.3401C66.9912 84.8157 67.8678 85.8059 68.102 87.351C68.056 87.4275 68.01 87.5039 67.9643 87.5803C68.3146 87.9008 68.3896 87.7467 68.468 87.3514C68.671 86.3321 69.1925 85.4944 70.0656 84.9059C70.4165 84.6693 70.9267 84.7186 71.1963 84.2736C69.5074 83.8383 68.6968 82.6546 68.4024 81.0224C68.387 80.9373 68.4928 80.6242 68.1759 80.7864C68.1599 80.9009 68.1438 81.0153 68.1277 81.1298C67.9849 82.7962 67.1156 83.869 65.3042 84.3401Z" fill="#B7D9E5"/>
<path d="M104.112 98.7413C104.087 98.6314 104.063 98.5214 104.038 98.4112C103.985 98.2403 103.932 98.0694 103.879 97.8985C103.771 97.5528 103.663 97.2068 103.556 96.8612C103.508 96.7402 103.461 96.6193 103.413 96.4984C103.358 96.3846 103.302 96.2704 103.246 96.1566C102.898 95.602 102.551 95.0474 102.204 94.4928C101.5 93.817 100.812 93.1311 99.9196 92.6832C96.6573 91.0452 91.8026 92.1841 89.334 95.1154C87.7406 97.0069 87.361 99.1299 87.823 101.491C88.1222 103.02 88.3837 104.58 88.0022 106.112C87.3675 108.66 85.6593 110.459 83.6577 112.054C86.7196 111.255 89.7451 110.368 92.2186 108.22L92.2192 108.225C92.3177 108.107 92.4161 107.989 92.5145 107.87C92.6455 107.703 92.7767 107.537 92.908 107.37C93.3886 106.512 93.6739 105.591 93.781 104.614C93.7807 104.498 93.7804 104.382 93.7801 104.265C93.7759 104.036 93.772 103.806 93.7679 103.577C93.5929 102.639 93.6443 101.716 93.9467 100.809C94.0429 100.577 94.1391 100.346 94.2353 100.115C94.5164 99.4504 94.9195 98.9093 95.6568 98.7068L95.6594 98.7201C95.7884 98.5327 95.9718 98.4892 96.1838 98.5211L96.1703 98.5472C96.2352 98.5053 96.2999 98.4637 96.3649 98.4218C96.6525 98.346 96.9417 98.3305 97.2328 98.3992C97.4236 98.3902 97.6147 98.3799 97.7633 98.5356C97.8842 98.5979 98.0052 98.6604 98.1258 98.7226C99.0307 99.3543 99.1874 100.109 98.6338 101.165C98.6058 101.396 98.4919 101.57 98.2886 101.685C97.6783 102.665 96.8973 102.552 96.0535 102.036C96.0551 102.144 96.0567 102.252 96.0583 102.36C96.168 102.524 96.1661 102.703 96.1355 102.887C96.2163 103.226 96.297 103.565 96.3777 103.904C96.5875 104.198 96.7972 104.492 97.007 104.785C97.0488 104.8 97.0752 104.829 97.0868 104.872C97.3753 105.052 97.6639 105.232 97.9524 105.411C98.6614 105.633 99.3833 105.771 100.13 105.75C100.255 105.729 100.38 105.709 100.504 105.688C100.958 105.542 101.412 105.396 101.866 105.249C101.93 105.211 101.993 105.172 102.056 105.133C102.57 104.72 103.08 104.302 103.465 103.756C103.541 103.625 103.616 103.494 103.691 103.363C104.205 102.159 104.328 100.897 104.251 99.6048C104.129 99.3292 104.097 99.039 104.112 98.7413Z" fill="#B7D9E5"/>
<path d="M95.6749 88.18C96.272 86.7574 96.4286 86.5772 97.5867 85.96C96.493 85.674 95.9889 84.8934 95.6829 83.8964C95.5279 85.0162 94.972 85.7398 93.6891 86.0174C94.9871 86.2725 95.4455 87.0795 95.6749 88.18Z" fill="#B7D9E5"/>
<path d="M83.6307 101.148L83.621 101.157C83.6501 101.197 83.6796 101.237 83.7087 101.277C83.6828 101.234 83.6569 101.191 83.6307 101.148Z" fill="#B7D9E5"/>
<path d="M72.5107 152.682C72.3271 152.298 72.144 151.913 71.96 151.527C71.8233 152.534 71.3478 153.317 70.1177 153.707C71.398 154.022 71.7895 154.844 72.007 156.077C72.2174 154.909 72.6941 154.198 73.5479 153.776C73.3932 153.23 72.7157 153.181 72.5107 152.682Z" fill="#B7D9E5"/>
<path d="M77.9194 129.166C77.2239 128.881 76.7407 128.539 76.4534 127.975C75.6659 128.214 75.23 128.773 75.028 129.546C75.7328 129.866 75.8101 130.612 76.1511 131.313C76.3917 130.275 76.9424 129.599 77.9194 129.166Z" fill="#B7D9E5"/>
<path d="M101.616 111.373C101.024 110.628 100.677 109.788 100.63 108.831L100.645 108.808C100.557 108.832 100.468 108.856 100.38 108.881C100.399 110.182 100.018 111.281 98.8246 111.969C98.5913 112.079 98.3581 112.19 98.1249 112.301C97.9421 112.373 97.7597 112.444 97.4831 112.551C97.9843 112.724 98.4047 112.732 98.7033 113.038C100.009 113.64 100.209 114.926 100.567 116.258C100.88 114.744 101.376 113.524 102.729 112.876C102.74 112.092 102.005 111.861 101.616 111.373Z" fill="#B7D9E5"/>
<path d="M109.597 117.482C109.499 118.365 109.05 118.742 108.385 119.11C109.17 119.36 109.414 119.958 109.711 120.624C109.984 119.922 110.239 119.346 111.088 119.116C110.309 118.765 109.973 118.238 109.597 117.482Z" fill="#B7D9E5"/>
<path d="M106.591 97.0343C106.769 98.0829 107.199 98.9448 108.285 99.3343C108.25 99.6497 107.884 99.5871 107.74 99.7857C107.385 99.9682 107.111 100.225 106.989 100.618C106.752 100.889 106.752 101.252 106.594 101.648C106.296 100.631 106.015 99.6526 104.781 99.5491C104.775 99.4807 104.769 99.412 104.763 99.3433C104.972 99.3056 105.206 99.3291 105.337 99.1034C105.395 99.0496 105.453 98.9954 105.511 98.9416C105.864 98.9396 106.024 98.7413 106.052 98.4086C106.373 98.1387 106.441 97.7785 106.416 97.3848C106.579 97.3206 106.568 97.1691 106.591 97.0343Z" fill="url(#paint21_linear_94_73755)"/>
<path d="M4.61694 118.581C5.70587 116.936 7.12775 115.571 8.39393 114.075C10.0275 112.146 11.7041 110.253 13.3284 108.316C13.8003 107.753 14.1754 107.588 14.7972 108.116C20.9213 113.323 27.0582 118.515 33.1996 123.701C33.5647 124.009 33.7539 124.32 33.5702 124.788C33.1289 126.03 32.1004 126.838 31.2856 127.786C29.2698 130.133 27.2724 132.497 25.212 134.805C24.9569 135.09 24.7452 135.434 24.3103 135.478C23.885 135.371 23.6769 134.966 23.3243 134.758C17.6062 129.979 11.9625 125.112 6.24374 120.333C5.63671 119.826 4.9322 119.375 4.61694 118.581Z" fill="#95BCCC"/>
<path d="M4.61696 118.581C7.18922 120.739 9.77015 122.887 12.3321 125.057C16.0718 128.225 19.7976 131.41 23.5296 134.587C23.7718 134.975 23.5286 135.27 23.3099 135.533C22.7028 136.262 22.1836 137.071 21.5058 137.734C20.4593 138.757 19.5721 139.859 19.2774 141.34C17.2884 139.921 15.503 138.26 13.6556 136.669C12.226 135.438 10.7298 134.284 9.3111 133.034C7.4218 131.369 5.47427 129.77 3.54895 128.146C2.72027 127.448 1.86553 126.78 1.05583 126.06C-0.274689 124.877 -0.358008 124.045 0.864423 122.769C1.99871 121.584 2.96797 120.268 4.05465 119.049C4.21517 118.869 4.42813 118.736 4.61696 118.581Z" fill="#114252"/>
<path d="M24.3097 135.367C27.1711 132.056 30.031 128.745 32.8966 125.438C33.1002 125.203 33.3444 125.004 33.5699 124.788C34.2792 125.4 34.9889 126.012 35.6982 126.623C35.9379 127.177 35.4862 127.467 35.2112 127.784C32.4511 130.973 29.688 134.16 26.9315 137.353C26.4328 137.777 26.1224 138.396 25.5273 138.721C25.3529 138.771 25.1657 138.78 25.0164 138.686C24.4744 138.343 24.079 138.442 23.6679 138.952C23.2674 139.448 23.0309 139.863 23.5675 140.401C23.7171 140.551 23.7316 140.784 23.6541 141.001C23.5096 141.331 23.2661 141.584 23.0094 141.822C22.1791 142.593 21.4222 142.601 20.6031 141.855C19.7745 141.1 19.667 140.313 20.3512 139.455C21.3768 138.169 22.4992 136.965 23.5881 135.733C23.7782 135.518 23.9989 135.349 24.3097 135.367Z" fill="#F7F7E0"/>
<path d="M26.7114 137.194C29.202 134.295 31.6957 131.398 34.1808 128.494C34.7029 127.884 35.1938 127.247 35.6989 126.623C35.9839 126.511 36.3104 126.277 36.5304 126.657C36.7244 126.992 36.4362 127.24 36.2309 127.476C33.2723 130.879 30.3134 134.281 27.3542 137.683C26.9234 137.806 26.7529 137.585 26.7114 137.194Z" fill="#95BCCC"/>
<path d="M24.3097 135.367C23.076 136.8 21.8378 138.229 20.6099 139.666C19.9018 140.496 19.9742 140.875 20.8566 141.68C21.557 142.319 22.183 142.396 22.8132 141.603C23.0522 141.303 23.3314 141.034 23.592 140.751C24.0041 140.695 24.2791 140.804 24.2386 141.292C23.9475 141.641 23.6788 142.014 23.3607 142.336C22.3699 143.342 21.4833 143.365 20.4227 142.425C20.0292 142.076 19.6583 141.702 19.2768 141.34C18.8631 140.035 19.7214 139.21 20.4635 138.403C21.5727 137.197 22.6504 135.975 23.5289 134.587C23.8905 134.746 24.1395 135.017 24.3097 135.367Z" fill="#2E697C"/>
<path d="M24.2389 141.292C24.0993 141.02 23.8555 140.874 23.5923 140.751C23.4453 140.604 23.3208 140.417 23.1468 140.317C22.5533 139.976 22.5639 139.615 23.0574 139.198C23.1365 139.131 23.2137 139.05 23.2623 138.96C23.8346 137.897 24.5458 137.748 25.4189 138.62C25.7808 138.667 26.1083 138.756 26.1437 139.208C27.1026 139.774 26.8784 140.652 26.7501 141.507C26.6831 141.952 26.6223 142.398 26.539 142.98C25.7145 142.375 24.9766 141.833 24.2389 141.292Z" fill="#C83F43"/>
<path d="M26.1433 139.208C25.9017 139.012 25.6601 138.817 25.4188 138.62C25.8499 138.145 26.281 137.67 26.7117 137.194C26.926 137.357 27.1402 137.52 27.3544 137.683C26.9504 138.192 26.5467 138.7 26.1433 139.208Z" fill="#2E697C"/>
<path d="M30.1948 85.1219C29.4896 85.2441 29.0769 85.7903 28.9289 86.362C28.6024 87.6234 28.3479 88.9138 28.3463 90.2326C28.8289 89.8931 29.3159 89.5577 29.5942 89.0093C30.2884 89.3749 31.0064 89.452 31.7556 89.1631C31.9875 87.8417 32.2195 86.52 32.4514 85.1986C31.7016 85.1025 30.9613 84.7265 30.1948 85.1219Z" fill="#114252"/>
<path d="M27.0344 105.051C26.4528 105.176 26.1536 105.628 25.8548 106.079C25.4807 107.33 25.2584 108.605 25.2381 109.913C25.5154 109.29 26.0533 108.971 26.6371 108.706C27.324 108.549 27.9821 108.794 28.6535 108.849C28.8481 107.593 29.0428 106.337 29.2374 105.081C28.5052 104.934 27.7737 104.711 27.0344 105.051Z" fill="#114252"/>
<path d="M29.4005 90.3148C28.8478 90.5086 28.4418 90.8704 28.1751 91.3911C27.8309 92.49 27.6405 93.6144 27.6196 94.7668C27.9438 94.0948 28.4775 93.6795 29.1885 93.4812C29.8154 93.4448 30.4321 93.5125 31.0392 93.6715C31.2135 92.5694 31.3875 91.4672 31.5619 90.3651C30.8439 90.2503 30.1281 90.0359 29.4005 90.3148Z" fill="#114252"/>
<path d="M32.4517 85.1987C37.9237 86.0622 43.395 86.9286 48.868 87.784C49.4226 87.8708 49.577 88.1458 49.4911 88.6817C48.26 96.3707 47.0389 104.062 45.8155 111.752C45.5311 111.855 45.248 111.789 44.9649 111.744C39.886 110.933 34.8059 110.13 29.7273 109.318C29.3287 109.254 28.9118 109.228 28.6004 108.914C28.4405 108.68 28.4322 108.414 28.4717 108.153C28.6329 107.088 28.7465 106.015 29.0086 104.968C29.2454 102.798 29.6517 100.653 29.9898 98.4986C30.2462 96.8654 30.4411 95.2212 30.8069 93.6064C30.9179 92.5056 31.0707 91.4112 31.3287 90.3339C31.347 89.9235 31.3995 89.5185 31.5227 89.1251C31.5944 88.0588 31.8144 87.0144 31.9885 85.9632C32.0403 85.6504 32.1644 85.3725 32.4517 85.1987Z" fill="#114252"/>
<path d="M31.0395 93.6719C28.334 109.497 30.6679 103.452 25.7901 105.87C26.4756 101.916 26.759 98.1155 27.8216 94.1388C28.418 93.1879 30.3141 92.8087 31.0395 93.6719Z" fill="#B7D9E5"/>
<path d="M28.6538 108.849C34.063 109.712 39.4723 110.574 44.8812 111.438C45.209 111.49 45.5549 111.495 45.8151 111.752C45.7903 111.93 45.7656 112.109 45.7405 112.287C45.5201 112.603 45.2126 112.61 44.8806 112.531C39.187 111.63 33.494 110.723 27.8013 109.816C27.3448 109.743 26.8964 109.651 26.5335 110.048C26.4087 110.249 26.2459 110.428 26.1616 110.657C25.8702 111.448 26.2996 112.2 27.1209 112.342C27.4011 112.39 27.6939 112.394 27.9502 112.541C28.2346 112.866 28.5785 112.663 28.9025 112.644C29.2673 112.666 29.6247 112.727 29.9766 112.822C30.2793 112.882 30.427 113.414 30.8522 113.11C34.7846 113.671 38.6964 114.35 42.6185 114.95C42.991 114.948 43.3503 115.062 43.7196 115.09C43.9638 115.108 44.2337 115.205 44.4299 114.954C44.4846 114.908 44.547 114.878 44.6162 114.863C44.9559 115.015 45.027 115.371 45.2049 115.646C45.193 116.134 44.9861 116.295 44.4765 116.213C38.5606 115.259 32.6399 114.334 26.7246 113.376C25.2046 113.13 24.5586 111.563 25.2371 109.913C25.3092 108.989 26.0481 108.762 26.7304 108.473C27.4153 108.377 28.0892 108.334 28.6538 108.849Z" fill="#95BCCC"/>
<path d="M28.3462 90.2327C28.869 88.9816 30.241 88.7627 31.7555 89.1631C31.7343 89.9502 31.5313 90.233 31.3283 90.3336C30.9693 90.5113 30.6084 90.1195 30.0213 90.1517C29.4625 90.1827 29.0166 90.58 28.7017 90.9643C28.5164 91.131 28.2906 91.3009 28.1831 91.2352C28.0319 91.1423 28.1847 90.6196 28.3462 90.2327Z" fill="#B7D9E5"/>
<path d="M45.0363 112.357C45.2711 112.334 45.506 112.31 45.7408 112.287C45.5626 113.406 45.384 114.526 45.2058 115.646C44.8513 115.536 44.5435 115.389 44.6435 114.923C44.4733 114.835 44.456 114.677 44.4543 114.511C44.4614 114.355 44.4685 114.198 44.5094 114.046C44.529 113.896 44.5431 113.744 44.5814 113.597C44.5969 113.447 44.6184 113.297 44.6525 113.15C44.6689 113.036 44.6744 112.921 44.7111 112.811C44.7538 112.612 44.8256 112.434 45.0363 112.357Z" fill="#114252"/>
<path d="M33.8376 99.9715C34.0811 98.4292 34.3185 96.8857 34.5717 95.345C34.7119 94.4909 35.005 94.2713 35.844 94.4022C38.3545 94.7936 40.864 95.1899 43.3716 95.6001C44.411 95.77 44.6136 96.0631 44.4476 97.131C44.0047 99.9795 43.5508 102.826 43.0949 105.673C43.0496 105.956 42.9611 106.232 42.8916 106.512C42.7787 106.964 42.4811 107.14 42.0343 107.069C39.2645 106.63 36.4948 106.191 33.7259 105.746C33.0941 105.645 33.0083 105.206 33.0938 104.669C33.3438 103.104 33.5902 101.538 33.8376 99.9715Z" fill="#B7D9E5"/>
<path d="M40.2405 91.7294C38.8196 91.5034 37.3993 91.2732 35.9771 91.0542C35.5577 90.9897 35.1797 90.844 35.253 90.3542C35.3228 89.8876 35.694 89.7948 36.1348 89.866C38.9756 90.3245 41.8178 90.7753 44.6606 91.2216C45.0926 91.2893 45.4108 91.4357 45.3191 91.9542C45.2239 92.4939 44.8349 92.4611 44.4319 92.3966C43.0351 92.1731 41.6376 91.9519 40.2405 91.7294Z" fill="#B7D9E5"/>
<path d="M28.3672 110.718C29.166 110.53 29.9149 110.855 30.684 110.957C30.9893 110.998 30.8964 111.284 30.8719 111.486C30.8005 112.078 30.7159 112.669 30.6364 113.261C30.2108 113.782 30.2607 112.997 30.0117 113.032C29.6205 112.71 29.2046 112.541 28.7159 112.822C28.4933 112.722 28.1539 113.596 28.022 112.739C27.9497 112.6 27.8663 112.466 27.8885 112.299C27.8956 112.145 27.9062 111.992 27.9455 111.842C27.9635 111.692 27.9805 111.541 28.0179 111.394C28.0352 111.241 28.0616 111.091 28.1227 110.949C28.1745 110.84 28.2479 110.754 28.3672 110.718Z" fill="#C83F43"/>
<path d="M28.7162 112.822C29.4452 112.264 29.4452 112.264 30.012 113.032C29.58 112.962 29.1483 112.892 28.7162 112.822Z" fill="#E4EAE6"/>
<path d="M45.0363 112.357C39.1715 111.419 33.3068 110.48 27.4413 109.547C26.935 109.466 26.4866 109.565 26.2269 110.075C25.3835 111.256 25.8377 112.38 27.2512 112.611C27.5082 112.653 27.7653 112.696 28.0223 112.738C28.0448 112.585 28.0677 112.432 28.0905 112.279C28.1143 112.137 28.1381 111.996 28.1623 111.854C28.1832 111.71 28.2041 111.567 28.225 111.423C28.2488 111.281 28.2726 111.138 28.2964 110.995C28.3083 110.948 28.3205 110.901 28.3327 110.854C28.7683 110.94 29.2119 110.96 29.6481 111.036C30.5862 111.199 30.5801 111.204 30.4817 112.134C30.4414 112.513 30.224 112.937 30.637 113.26C30.9217 113.301 31.2067 113.339 31.4905 113.384C35.254 113.974 39.0174 114.566 42.7809 115.157C43.2049 115.231 43.6321 115.292 44.0522 115.383C44.438 115.467 44.5885 115.31 44.5805 114.941L44.6435 114.923C44.6532 114.775 44.6628 114.628 44.6725 114.481C44.6927 114.334 44.7133 114.187 44.7336 114.041C44.758 113.902 44.7822 113.763 44.8066 113.625C44.8278 113.478 44.8491 113.332 44.8703 113.185C44.8822 113.091 44.8944 112.996 44.9063 112.901C44.9498 112.72 44.9932 112.539 45.0363 112.357Z" fill="#F7F7E0"/>
<path d="M129.624 169.186C129.538 168.888 129.452 168.591 129.366 168.293C128.971 168.471 128.569 168.368 128.17 168.325C128.307 168.33 128.444 168.335 128.581 168.341C128.854 168.351 129.106 168.379 129.324 168.181C129.037 167.55 128.679 166.941 128.479 166.285C128.146 165.188 127.123 164.57 126.71 163.53C126.458 162.896 126.18 162.24 125.598 161.801C125.348 161.599 125.059 161.512 124.741 161.478C121.153 161.085 117.611 160.398 114.061 159.768C112.101 159.435 110.163 158.991 108.212 158.614C104.28 157.852 100.329 157.292 96.3156 157.283C95.3734 157.299 94.4312 157.289 93.4877 157.292C92.4518 157.269 91.4375 157.46 90.4203 157.602C85.8603 158.242 81.624 159.695 78.0609 162.73C77.1611 163.496 76.1851 164.23 75.6907 165.377C75.6971 165.637 75.8882 165.753 76.0806 165.848C77.6675 166.633 78.7538 167.906 79.5802 169.435C79.7279 169.708 79.864 169.999 80.213 170.071C80.7075 170.157 81.1884 170.071 81.6651 169.949C85.4186 168.971 89.2584 168.644 93.1145 168.561C95.8408 168.502 98.5656 168.749 101.279 169.02C104.753 169.367 108.229 169.685 111.705 169.996C112.305 169.996 112.894 170.142 113.495 170.142C118.603 170.144 123.712 170.145 128.82 170.138C129.15 170.138 129.5 170.176 129.768 169.904C129.72 169.664 129.672 169.425 129.624 169.186Z" fill="#CDB299"/>
<path d="M66.545 157.966C63.5574 156.54 60.3299 156.198 57.0949 156.011C54.0981 155.838 51.1105 156.103 48.1336 156.505C42.8482 157.217 37.6779 158.507 32.4659 159.587C29.1064 160.283 25.7319 160.89 22.3457 161.436C21.8934 161.509 21.4431 161.542 21.0496 161.804C20.6614 162.12 20.542 162.604 20.302 163.012C19.9263 163.651 19.7008 164.486 19.1552 164.888C18.544 165.339 18.3468 165.878 18.1251 166.493C17.817 167.346 17.4885 168.193 17.1687 169.043C17.3666 169.234 17.6175 169.176 17.8511 169.182C17.9472 169.185 18.0431 169.186 18.1393 169.188C17.9688 169.188 17.7986 169.189 17.6281 169.187C17.4132 169.186 17.1938 169.176 17.0156 169.334C16.9677 169.523 16.9198 169.711 16.8718 169.9C17.2077 170.222 17.6342 170.14 18.0302 170.137C21.9961 170.099 25.9641 170.263 29.9277 169.991C32.1188 169.812 34.3143 169.703 36.5073 169.568C38.8241 169.425 41.1374 169.234 43.4523 169.067C46.6509 168.836 49.8504 168.649 53.0548 168.547C55.0442 168.483 57.0232 168.686 59.0048 168.82C61.1634 168.966 63.2901 169.269 65.3576 169.929C65.5995 169.975 65.8376 170.052 66.0882 169.989C66.4012 169.845 66.5048 169.536 66.6473 169.263C67.8581 166.937 69.7407 165.596 72.3605 165.312C72.7253 165.273 73.1387 165.298 73.3758 164.911C73.3761 164.56 73.2191 164.26 73.0564 163.966C71.5499 161.243 69.3273 159.294 66.545 157.966Z" fill="#CDB299"/>
<path d="M98.6659 140.028C100.759 138.545 102.995 137.302 105.27 136.135C107.225 135.132 109.218 134.205 111.194 133.245C111.924 132.969 112.654 132.693 113.498 132.375C113.04 134.019 112.611 135.553 112.187 137.088C112.043 137.609 111.559 137.487 111.229 137.545C108.945 137.946 106.676 138.416 104.42 138.952C102.49 139.411 100.579 139.945 98.7068 140.608C98.508 140.679 98.3166 140.807 98.0866 140.746C98.0213 140.297 98.5614 140.339 98.6659 140.028Z" fill="#BEA38D"/>
<path d="M98.666 140.028C98.7042 140.454 98.1287 140.384 98.0869 140.746C97.7713 140.941 97.4509 141.125 97.0787 141.19C97.4931 140.645 98.1165 140.387 98.666 140.028Z" fill="#92806D"/>
<path d="M80.0799 169.945C80.5701 169.917 81.0652 169.934 81.5426 169.785C89.9664 169.527 98.3922 169.737 106.817 169.674C108.084 169.665 109.35 169.718 110.614 169.826C110.944 169.854 111.283 169.884 111.613 169.789C117.256 170.064 122.904 169.858 128.549 169.92C128.955 169.925 129.362 169.91 129.768 169.903C130.553 170.014 130.938 170.366 130.896 170.934C130.853 171.506 130.433 171.801 129.632 171.802C113.949 171.803 98.2651 171.802 82.5814 171.808C82.2812 171.808 81.9534 171.7 81.6848 171.942C81.1376 172.036 80.5862 172.027 80.0458 171.925C79.607 171.843 79.2007 171.676 79.247 171.099C79.2914 170.949 79.3677 170.835 79.5446 170.926C80.1252 171.226 80.1468 170.918 80.041 170.472C79.9978 170.29 79.921 170.11 80.0799 169.945Z" fill="#72A0B3"/>
<path d="M16.8722 169.9C20.839 169.881 24.8071 170.054 28.7719 169.792C29.176 169.765 29.5832 169.784 29.9889 169.781C31.1116 169.931 32.2336 169.757 33.3538 169.736C34.3819 169.716 35.4126 169.679 36.4407 169.677C45.5256 169.665 54.6106 169.675 63.6951 169.66C64.3173 169.659 64.9208 169.842 65.5423 169.772C65.7241 169.824 65.9058 169.877 66.0879 169.928C66.2111 170.079 66.1371 170.239 66.1111 170.397C66.0776 170.599 65.9576 170.856 66.2072 170.959C66.4794 171.072 66.5312 170.777 66.6361 170.61C66.7647 170.404 66.8062 170.092 67.1717 170.181C67.5339 170.431 67.6459 170.778 67.5091 171.18C67.3489 171.651 66.996 171.915 66.4993 171.962C65.7916 172.031 65.0717 171.922 64.3713 172.106C64.2044 171.67 63.8274 171.805 63.516 171.805C51.6629 171.802 39.8101 171.802 27.9571 171.802C24.3338 171.802 20.7109 171.802 17.0877 171.803C16.7023 171.803 16.3134 171.828 16.0278 171.488C15.7907 171.207 15.7266 170.895 15.8508 170.548C16.0229 170.068 16.4151 169.932 16.8722 169.9Z" fill="#72A0B3"/>
<path d="M75.4784 165.411C75.5759 165.429 75.6733 165.448 75.7708 165.467C77.8123 166.375 79.1 168.011 80.0799 169.944C80.1204 170.102 80.1433 170.267 80.2053 170.416C80.3318 170.72 80.4022 171.031 80.0879 171.237C79.7035 171.489 79.5636 171.116 79.3773 170.892C78.6204 168.637 77.3104 166.815 74.9383 166.19C71.6367 165.32 68.3285 166.795 67.0082 170.19C66.9079 170.429 66.812 170.669 66.7052 170.906C66.5926 171.155 66.4417 171.397 66.1233 171.262C65.8444 171.145 65.7874 170.883 65.8688 170.602C65.9344 170.375 66.0145 170.153 66.0882 169.928C66.8976 168.161 68.0219 166.687 69.8205 165.813C70.9207 165.279 72.0903 165.098 73.2902 165.032C73.4665 165.218 73.6837 165.126 73.8883 165.121C74.1846 165.145 74.4805 165.169 74.7771 165.193C75.0113 165.266 75.2449 165.338 75.4784 165.411Z" fill="#B81223"/>
<path d="M93.3368 157.487C94.3453 157.263 95.3541 157.265 96.3626 157.486C95.3541 157.487 94.3453 157.487 93.3368 157.487Z" fill="#CAC8B4"/>
<path d="M56.6037 166.45C56.5941 165.731 56.5844 165.013 56.5745 164.294C56.4397 163.576 56.6456 162.848 56.5101 162.13C56.5014 162.022 56.4928 161.913 56.4841 161.805C56.3541 161.664 56.3467 161.517 56.4641 161.365C56.4683 160.469 56.4722 159.572 56.4763 158.675C56.5349 158.613 56.6066 158.585 56.6916 158.589C58.9254 158.565 61.1209 158.851 63.2801 159.421C63.5562 159.493 63.8434 159.541 64.0776 159.726C64.142 159.789 64.1593 159.862 64.1301 159.947C64.0757 162.763 64.021 165.578 63.9634 168.554C63.4432 168.171 63.0485 167.88 62.6538 167.589C62.3453 167.492 62.069 167.335 61.8158 167.134C61.736 167.083 61.664 167.022 61.5896 166.963C59.978 165.704 60.586 165.77 58.8588 166.794C58.6973 166.916 58.4991 166.943 58.3151 167.009C57.7281 167.142 57.3066 167.596 56.7189 167.848C56.5397 167.54 56.68 167.198 56.5957 166.896C56.5021 166.746 56.4921 166.597 56.6037 166.45Z" fill="#B81223"/>
<path d="M80.369 171.783C79.8408 171.706 79.2614 171.688 79.3773 170.892C79.5307 170.685 79.4525 170.469 79.3673 170.278C78.8449 169.113 78.2185 168.018 77.2158 167.186C75.9374 166.125 74.4798 165.718 72.8212 165.806C70.2785 165.941 68.4449 167.149 67.189 169.314C67.04 169.571 66.8605 169.856 67.0085 170.19C67.3231 170.45 67.5351 170.768 67.3399 171.174C67.1436 171.583 66.8168 171.821 66.3194 171.79C65.8485 171.76 65.3743 171.787 64.9017 171.783C64.654 171.78 64.4182 171.785 64.3713 172.107C64.5292 172.816 65.0346 173.067 65.6912 173.068C70.5774 173.073 75.4635 173.075 80.3497 173.065C81.0813 173.064 81.5763 172.717 81.6851 171.941C81.2775 171.63 80.8062 171.848 80.369 171.783Z" fill="#39778D"/>
<path d="M104.531 169.116C99.5937 168.617 94.657 168.113 89.6849 168.488C86.9364 168.695 84.2046 169.024 81.5429 169.785C81.7411 169.989 81.9952 169.905 82.2255 169.906C91.7444 169.91 101.264 169.91 110.782 169.905C111.06 169.905 111.361 169.999 111.613 169.789C109.252 169.565 106.89 169.355 104.531 169.116Z" fill="#39778D"/>
<path d="M65.5423 169.772C65.0379 169.621 64.5402 169.44 64.0281 169.322C60.2395 168.448 56.3824 168.27 52.5215 168.361C44.9935 168.539 37.5029 169.359 29.9885 169.781C30.2105 169.997 30.49 169.905 30.7429 169.906C42.117 169.91 53.4914 169.909 64.8654 169.903C65.0948 169.903 65.3515 169.992 65.5423 169.772Z" fill="#39778D"/>
<path d="M56.616 158.65C56.9039 157.988 57.5038 158.063 58.0604 158.035C60.162 158.151 62.2343 158.439 64.2439 159.096C64.4279 159.377 64.4472 159.625 64.1024 159.799C62.4003 159.382 60.6822 159.062 58.9396 158.858C58.3184 158.785 57.7049 158.796 57.0889 158.816C56.8888 158.822 56.7138 158.885 56.616 158.65Z" fill="#DD7475"/>
<path d="M113.389 161.7C110.799 161.153 108.196 160.667 105.595 160.174C102.613 159.609 99.6008 159.252 96.573 159.1C92.3157 158.888 88.1932 159.624 84.2027 161.108C82.9767 161.563 81.7684 162.064 80.6634 162.779C81.8437 162.391 82.9905 161.921 84.1621 161.523C87.2758 160.466 90.4605 159.765 93.7617 159.653C97.2199 159.535 100.628 159.944 104.034 160.492C108.628 161.231 113.191 162.132 117.768 162.961C118.643 163.119 119.505 163.403 120.421 163.314C118.077 162.773 115.741 162.197 113.389 161.7Z" fill="#95806D"/>
<path d="M80.647 165.428C88.679 162.032 97.0019 162 105.444 163.344C96.9668 161.595 88.6189 161.338 80.647 165.428Z" fill="#95806D"/>
<path d="M83.4313 167.013C89.8712 164.985 96.4141 165.235 102.984 166.094C96.3984 164.892 89.8455 164.42 83.4313 167.013Z" fill="#95806D"/>
<path d="M57.3623 157.934C54.9689 157.928 52.5807 157.936 50.1911 158.186C47.8869 158.428 45.6016 158.761 43.3237 159.17C40.5735 159.665 37.8777 160.403 35.1501 160.998C33.8479 161.282 32.5656 161.657 31.2744 161.991C31.4391 162.094 31.5845 162.106 31.7196 162.074C36.2677 160.984 40.8338 160.003 45.4681 159.329C49.1257 158.797 52.7882 158.573 56.4767 158.674C56.523 158.665 56.5697 158.657 56.6163 158.65C57.0525 158.339 57.6206 158.338 58.0607 158.035C57.8455 157.88 57.5971 157.934 57.3623 157.934Z" fill="#95806D"/>
<path d="M55.9722 163.768C53.2211 163.567 50.4665 163.7 47.7231 163.893C45.4194 164.055 43.1206 164.331 40.8366 164.704C39.3285 164.95 37.8079 165.123 36.3265 165.53C43.0508 164.674 49.7668 163.732 56.5748 164.295C56.5924 163.572 56.3737 163.798 55.9722 163.768Z" fill="#95806D"/>
<path d="M39.0924 167.557C44.9118 166.927 50.7431 166.637 56.5957 166.896C56.5983 166.747 56.6012 166.598 56.6037 166.45C50.7357 166.327 44.8835 166.456 39.0924 167.557Z" fill="#95806D"/>
<path d="M56.4844 161.805C56.4776 161.659 56.4712 161.512 56.4644 161.365C56.1932 161.241 55.9047 161.255 55.6171 161.254C52.746 161.245 49.8919 161.508 47.0459 161.845C45.3847 162.042 43.7334 162.323 42.0777 162.567C46.8716 162.09 51.649 161.448 56.4844 161.805Z" fill="#95806D"/>
<path d="M64.244 159.096C64.2732 159.346 64.2388 159.583 64.1024 159.799C64.1117 159.849 64.1208 159.898 64.1301 159.947C66.7171 160.565 68.8567 161.979 70.8145 163.721C69.1848 161.379 66.8873 159.991 64.244 159.096Z" fill="#95806D"/>
<path d="M61.563 166.946C60.6404 166.734 59.721 166.457 58.7601 166.719C58.5545 166.727 58.42 166.845 58.3155 167.009C59.7618 167.202 61.2078 167.396 62.6542 167.589C62.4241 167.402 62.1941 167.215 61.9641 167.028C61.81 167.095 61.6965 166.976 61.563 166.946Z" fill="#95806D"/>
<path d="M109.412 133.642C107.936 134.078 105.687 134.775 102.986 135.742C93.8969 138.995 87.3881 141.4 81.937 147.013C80.6097 148.379 78.7401 150.559 76.9785 153.723C76.7797 147.89 76.0285 143.144 75.3366 139.773C74.7395 136.866 74.2814 134.684 73.1996 131.768C71.6886 127.696 69.557 123.944 67.0134 120.417C65.6607 118.542 64.261 116.706 62.842 114.882C62.5116 114.458 62.1961 114.267 61.6502 114.618C59.2802 116.139 56.8894 117.626 54.5022 119.12C52.6656 120.269 50.8233 121.409 48.9835 122.553C50.2349 123.707 51.4834 124.867 52.701 126.055C54.4529 127.765 56.1872 129.493 57.8407 131.304C59.1027 132.686 60.3939 134.045 61.6202 135.457C64.2668 138.503 66.8056 141.641 69.1118 144.958C70.7846 147.364 72.4268 149.791 73.6531 152.474C74.6018 154.549 75.2133 156.708 75.4569 158.976C75.4758 159.152 75.3935 159.446 75.6505 159.484C75.6483 159.487 75.6476 159.491 75.6454 159.495C75.6454 161.001 75.6454 162.507 75.6454 164.126C76.9881 162.274 78.2479 160.537 79.5076 158.8C79.8206 158.826 79.9393 158.499 80.0918 158.299C82.3488 155.339 84.7448 152.491 87.2604 149.756C90.2161 146.541 93.4472 143.618 97.0897 141.182L97.0794 141.19C97.6189 140.787 98.233 140.503 98.7837 140.118C102.547 137.669 106.513 135.596 110.603 133.755C110.674 133.723 110.865 133.616 111.13 133.481C112.079 132.995 112.893 132.631 113.498 132.375C112.601 132.647 111.169 133.086 109.412 133.642Z" fill="#F7F7E0"/>
<path d="M72.0903 157.624C71.9015 157.208 71.6676 156.815 71.3755 156.459C71.2684 156.365 71.1635 156.27 71.0593 156.173C71.0288 156.093 70.9956 156.015 70.9519 155.944C69.0475 152.825 66.8082 149.966 64.3208 147.31C62.6413 145.517 60.9032 143.78 59.0155 142.204C56.3445 139.973 53.5599 137.899 50.7023 135.923C49.9351 135.393 49.1678 134.863 48.4006 134.333C48.4012 134.394 48.3893 134.445 48.3697 134.489C47.828 133.896 47.2094 133.423 46.3884 133.265C46.3128 133.357 46.2536 133.474 46.1587 133.537C45.0543 134.274 44.0008 135.079 42.935 135.871C40.5478 137.644 38.3767 139.662 36.2065 141.677C34.0264 143.701 32.0072 145.893 29.9612 148.055C29.828 148.196 29.6868 148.328 29.6897 148.543C29.8457 148.761 30.0821 148.83 30.3231 148.82C31.0244 148.791 31.7041 148.963 32.3948 149.012C35.162 149.208 37.9224 149.471 40.6845 149.728C43.7792 150.015 46.8684 150.336 49.9515 150.732C54.0872 151.263 58.19 151.95 62.2125 153.07C64.9977 153.846 67.6983 154.804 70.0109 156.625C70.5613 157.058 71.0284 157.573 71.5251 158.06C71.6914 158.223 71.9105 158.482 72.1286 158.337C72.4066 158.152 72.1939 157.853 72.0903 157.624Z" fill="#F7F7E0"/>
<path d="M74.1533 164.53C74.0771 163.997 74.0317 163.455 73.7724 162.967C73.6682 162.822 73.5981 162.657 73.5202 162.497C72.9936 160.082 71.5817 158.199 69.7098 156.641C68.0711 155.277 66.1088 154.494 64.1088 153.797C60.0066 152.366 55.7609 151.602 51.4792 151.006C49.2354 150.693 46.9864 150.42 44.7252 150.244C42.3962 150.063 40.0736 149.8 37.7481 149.572C36.8367 149.545 35.9363 149.33 35.0185 149.409C35.0143 149.414 35.0105 149.419 35.0063 149.424C34.9944 149.394 34.9799 149.363 34.9599 149.33C34.3542 149.102 33.7086 149.119 33.0809 149.027C32.7605 148.981 32.4263 148.877 32.1365 149.133C32.1313 149.285 32.066 149.406 31.9605 149.514C29.957 151.553 28.0931 153.72 26.1948 155.857C24.4538 157.817 22.69 159.756 21.0503 161.804C23.7782 161.498 26.4766 160.994 29.165 160.461C33.8462 159.533 38.505 158.492 43.1808 157.534C46.3871 156.877 49.6288 156.416 52.8946 156.227C55.6914 156.064 58.4911 156.198 61.266 156.637C64.0384 157.076 66.6579 157.911 68.9403 159.625C70.8499 161.059 72.4104 162.769 73.2906 165.032C73.4195 165.357 73.6644 165.293 73.9127 165.217C74.1617 165.047 74.1919 164.799 74.1533 164.53Z" fill="#F7F7E0"/>
<path d="M75.3577 161.538C75.3079 161.327 75.2452 161.121 75.1969 160.911C75.231 158.163 74.6584 155.527 73.5871 152.994C71.9928 149.226 69.5512 145.984 67.1417 142.73C65.1752 140.074 63.1215 137.484 60.9456 134.997C59.0376 132.815 57.1255 130.637 55.0384 128.622C54.3091 127.851 53.5898 127.07 52.7756 126.385C52.7852 126.366 52.7971 126.349 52.8055 126.328C52.2741 125.439 51.4521 124.859 50.6318 124.277C50.6219 124.27 50.5897 124.294 50.5678 124.304C50.4764 124.479 50.3426 124.607 50.1679 124.702C47.3113 126.248 44.6847 128.144 42.0729 130.062C42.2775 130.377 42.605 130.541 42.9064 130.733C47.8614 133.889 52.7701 137.11 57.4401 140.686C60.4994 143.029 63.2753 145.669 65.7922 148.578C68.3095 151.487 70.5864 154.579 72.4046 157.982C73.5157 160.061 74.5004 162.199 74.5957 164.625C74.6053 164.871 74.577 165.19 74.9772 165.191C75.2477 165.041 75.2355 164.761 75.2815 164.511C75.4639 163.524 75.4304 162.531 75.3577 161.538Z" fill="#F7F7E0"/>
<path d="M125.251 161.101C123.047 157.842 120.805 154.607 118.674 151.301C118.022 150.289 117.214 149.794 116.099 149.518C113.256 148.812 110.394 148.233 107.499 147.78C105.83 147.519 104.158 147.203 102.482 147.138C100.102 147.046 97.7086 146.976 95.3291 147.377C92.7929 147.806 90.3564 148.501 88.0775 149.709C87.8941 149.806 86.8489 150.554 86.8087 150.568C86.6366 150.732 86.4471 150.883 86.2943 151.064C84.9809 152.62 83.6426 154.156 82.3729 155.747C80.806 157.711 79.2683 159.7 77.8959 161.809L77.8953 161.81C76.974 162.932 76.1771 164.139 75.4781 165.411C75.5604 165.509 75.6586 165.525 75.7705 165.468C75.9761 165.178 76.153 164.861 76.3923 164.602C78.1764 162.67 80.2417 161.137 82.6399 160.028C86.0418 158.456 89.629 157.734 93.3365 157.487C94.345 157.375 95.3538 157.376 96.3623 157.487C97.8666 157.475 99.3583 157.662 100.856 157.754C103.885 157.94 106.827 158.641 109.805 159.128C111.235 159.362 112.621 159.834 114.075 159.946C114.679 160.188 115.329 160.2 115.956 160.319C119.153 160.924 122.363 161.448 125.599 161.801C125.558 161.529 125.4 161.321 125.251 161.101Z" fill="#F6F7E0"/>
<path d="M61.9641 167.029C61.1331 167.205 60.3534 166.808 59.5369 166.809C59.2779 166.809 59.019 166.751 58.76 166.719C59.1193 166.32 59.6421 166.164 60.0558 165.844C60.3199 165.641 60.5 165.858 60.6805 165.998C61.1129 166.336 61.5369 166.685 61.9641 167.029Z" fill="#CDB098"/>
<path d="M42.073 130.062C53.6761 136.473 76.1395 153.697 74.2692 165.315C73.4779 164.37 73.6609 161.685 72.4034 160.146C65.8808 149.006 36.9786 150.776 29.582 148.837C43.9224 149.286 66.7297 151.293 72.1062 158.299C64.3312 143.786 51.844 137.939 42.073 130.062Z" fill="#AD9680"/>
<path d="M79.5127 158.792C84.534 152.377 89.9957 145.595 97.089 141.182C83.2231 150.757 73.508 170.996 75.1309 164.084C76.602 148.147 57.2359 131.645 50.148 123.914C49.6742 123.661 48.2429 121.878 49.7163 122.98C62.5997 135.47 77.045 150.597 75.8133 163.054C75.3008 165.459 78.1935 159.345 79.5127 158.792Z" fill="#92806D"/>
<path d="M107.023 84.4731C107.21 83.8789 107.54 83.4168 108.103 83.1002C112.01 80.9037 115.914 78.6998 119.805 76.4743C120.208 76.2434 120.427 76.2782 120.622 76.6703C120.977 76.9334 121.202 77.2968 121.414 77.6744C124.483 83.1434 127.552 88.6121 130.643 94.0681C130.853 94.4383 131.131 94.7943 131.073 95.266C130.954 95.6549 130.603 95.7942 130.296 95.9703C126.761 97.9968 123.204 99.9847 119.655 101.988C118.835 102.45 118.075 102.907 117.939 103.947C117.927 104.042 117.844 104.111 117.759 104.161C117.303 104.084 117.206 103.665 117.024 103.348C114.972 99.7748 112.985 96.1647 110.941 92.5875C109.812 90.6112 108.698 88.6266 107.591 86.6374C107.359 86.2208 107.111 85.8058 106.999 85.3315C106.881 85.0423 106.879 84.7556 107.023 84.4731Z" fill="#F6F7E0"/>
<path d="M103.923 85.5153C104.249 85.2503 104.611 85.0516 105.006 84.9117C105.182 84.9694 105.261 85.1174 105.342 85.2667C107.338 88.9403 109.437 92.5559 111.474 96.206C112.75 98.4924 114.08 100.748 115.324 103.052C115.51 103.396 115.687 103.737 115.519 104.143C115.368 104.44 115.088 104.585 114.817 104.739C111.312 106.733 107.795 108.703 104.281 110.68C103.919 110.883 103.562 111.206 103.084 110.962C102.528 110.441 102.262 109.728 101.899 109.086C98.9739 103.9 96.0432 98.7159 93.1345 93.52C92.9357 93.1647 92.7105 92.8177 92.7269 92.3843C92.6751 92.1641 92.4036 91.9703 92.807 91.7469C95.9403 90.0131 99.0594 88.2538 102.183 86.5023C102.424 86.5449 102.534 86.7361 102.64 86.9212C103.327 88.121 104.011 89.3221 104.689 90.5274C104.818 90.7563 104.931 90.9956 104.878 91.2738C104.739 91.6169 104.414 91.7433 104.126 91.9091C101.987 93.1427 99.8273 94.3419 97.6935 95.5862C99.7945 94.439 101.872 93.2492 103.955 92.0693C104.303 91.872 104.629 91.5966 105.069 91.6105C105.483 91.8336 105.657 92.1877 105.636 92.6484C105.234 93.2972 104.523 93.5326 103.91 93.8686C102.084 94.8675 100.306 95.948 98.483 96.9505C100.392 95.9113 102.291 94.8546 104.178 93.7751C104.711 93.4703 105.213 93.0853 105.841 92.9689C106.266 93.1805 106.437 93.5371 106.426 93.9969C106.246 94.438 105.823 94.6005 105.455 94.8111C103.497 95.9309 101.536 97.0456 99.5626 98.1377C99.4799 98.1835 99.3924 98.2235 99.3152 98.3499C101.403 97.181 103.435 95.9983 105.495 94.8656C105.866 94.6615 106.205 94.3529 106.68 94.4145C107.053 94.6624 107.245 95.0052 107.227 95.4585C106.95 95.918 106.456 96.0905 106.026 96.3298C104.208 97.3403 102.418 98.4005 100.583 99.3811C100.421 99.4675 100.249 99.5436 100.036 99.7783C102.243 98.5427 104.317 97.3168 106.437 96.1747C106.748 96.007 107.036 95.7665 107.423 95.7852C107.837 96.0048 108.015 96.3533 107.984 96.8157C107.765 97.2594 107.318 97.4187 106.929 97.6412C104.897 98.8023 102.854 99.9434 100.833 101.124C103.021 99.9421 105.168 98.6872 107.337 97.4703C107.605 97.3197 107.852 97.1091 108.194 97.1494C108.58 97.3822 108.809 97.7057 108.783 98.1755C108.669 98.4986 108.382 98.6375 108.114 98.7923C105.941 100.05 103.729 101.239 101.571 102.523C103.568 101.466 105.516 100.322 107.488 99.2186C107.961 98.9545 108.388 98.5676 108.979 98.5708C109.31 98.84 109.742 98.9948 109.935 99.4207C109.834 99.6929 109.59 99.8061 109.361 99.9341C107.064 101.219 104.769 102.506 102.494 103.831C105.258 102.308 107.988 100.723 110.771 99.2334C110.981 99.1557 111.195 99.1818 111.408 99.216C110.468 97.6808 109.616 96.0957 108.736 94.5273C107.235 91.8543 105.726 89.1857 104.221 86.5152C104.05 86.2102 103.805 85.9132 103.923 85.5153Z" fill="#F6F7E0"/>
<path d="M92.7272 92.3837C94.9794 96.3633 97.2328 100.342 99.4831 104.323C100.709 106.491 101.929 108.663 103.151 110.833C103.485 111.302 103.862 111.079 104.222 110.887C105.45 110.233 106.648 109.527 107.859 108.843C110.113 107.57 112.365 106.291 114.617 105.015C115.339 104.605 116.065 104.438 116.888 104.658C117.59 104.846 118.443 104.341 118.614 103.627C118.792 102.889 119.219 102.415 119.862 102.05C123.3 100.094 126.754 98.1655 130.184 96.1963C130.566 95.9774 131.058 95.8307 130.999 95.2299C128.22 90.2791 125.438 85.3299 122.662 80.3771C121.972 79.1467 121.302 77.9059 120.622 76.67C121.22 76.2276 121.583 76.385 121.946 77.0376C125.3 83.0554 128.683 89.0564 132.055 95.0639C132.491 95.8403 132.466 95.9335 131.661 96.3882C128.114 98.3918 124.568 100.398 121.009 102.38C120.475 102.677 120.168 102.959 120.288 103.649C120.402 104.303 120.111 104.871 119.497 105.219C118.871 105.573 118.26 105.955 117.621 106.285C117.028 106.59 116.099 106.445 115.702 105.929C115.43 105.575 115.239 105.646 114.935 105.819C112.792 107.045 110.644 108.263 108.494 109.477C106.928 110.36 105.341 111.206 103.795 112.123C103.161 112.498 102.848 112.375 102.505 111.749C101.223 109.414 99.8932 107.104 98.5843 104.784C96.5332 101.146 94.5004 97.499 92.42 93.8789C92.0356 93.2092 92.0185 92.7587 92.7272 92.3837Z" fill="#39778D"/>
<path d="M115.39 104.102C115.457 103.801 115.348 103.556 115.201 103.29C113.518 100.258 111.759 97.2694 110.107 94.2194C108.66 91.5476 107.096 88.9394 105.585 86.3021C105.334 85.8636 105.122 85.4067 105.006 84.9111C105.451 84.5873 105.929 84.7102 106.405 84.8105C106.794 84.6399 106.911 85.0097 107.129 85.1771C108.017 86.9512 109.031 88.6547 109.996 90.3852C111.043 92.2619 112.115 94.1259 113.152 96.0093C114.52 98.495 115.935 100.955 117.332 103.425C117.473 103.673 117.628 103.914 117.776 104.158C117.867 104.423 117.637 104.369 117.559 104.328C116.916 103.993 116.254 104.014 115.578 104.183C115.512 104.199 115.444 104.15 115.39 104.102Z" fill="#E0E3CD"/>
<path d="M107.129 85.1774C106.798 85.2325 106.666 84.894 106.405 84.8108C106.536 84.5615 106.811 84.5767 107.022 84.4735C107.058 84.7079 107.093 84.9427 107.129 85.1774Z" fill="#39778D"/>
<path d="M115.39 104.102C116.184 103.7 116.957 103.653 117.696 104.234C117.707 104.243 117.742 104.235 117.753 104.224C117.768 104.208 117.769 104.18 117.776 104.158C117.723 103.152 118.199 102.526 119.073 102.041C122.889 99.9211 126.68 97.7543 130.477 95.601C130.662 95.4962 130.826 95.3547 131 95.2305C131.461 95.7216 131.138 95.9457 130.708 96.1879C127.075 98.2338 123.453 100.298 119.817 102.338C119.241 102.66 118.925 103.105 118.826 103.743C118.713 104.478 117.517 105.169 116.839 104.9C116.219 104.655 115.634 104.708 115.049 105.039C111.442 107.082 107.82 109.098 104.228 111.168C103.637 111.509 103.346 111.482 103.151 110.833C103.383 111.02 103.562 110.828 103.734 110.731C107.566 108.571 111.395 106.405 115.224 104.238C115.285 104.204 115.335 104.148 115.39 104.102Z" fill="#E0E3CD"/>
<path d="M102.841 88.7324C103 88.9745 103.268 89.2196 102.77 89.4956C100.569 90.7144 98.3784 91.951 96.1893 93.1902C95.9101 93.3482 95.7312 93.3656 95.5491 93.047C95.358 92.7123 95.5231 92.5585 95.774 92.416C97.9412 91.1862 100.108 89.9567 102.279 88.732C102.44 88.6408 102.621 88.5305 102.841 88.7324Z" fill="#E0E3CD"/>
<path d="M113.531 101.123C113.746 101.487 113.458 101.576 113.233 101.704C111.942 102.437 110.654 103.175 109.362 103.906C107.591 104.908 105.819 105.909 104.041 106.897C103.869 106.993 103.644 107.313 103.447 106.951C103.257 106.605 103.638 106.554 103.807 106.457C106.822 104.737 109.843 103.029 112.868 101.324C113.066 101.213 113.266 101.052 113.531 101.123Z" fill="#E0E3CD"/>
<path d="M102.697 105.274C103.491 104.81 104.228 104.365 104.978 103.944C107.395 102.585 109.817 101.234 112.238 99.8829C112.406 99.789 112.585 99.5291 112.777 99.8251C112.969 100.121 112.67 100.199 112.505 100.293C109.803 101.829 107.097 103.358 104.392 104.888C103.955 105.135 103.518 105.382 103.076 105.621C102.956 105.686 102.813 105.777 102.696 105.615C102.6 105.481 102.608 105.347 102.697 105.274Z" fill="#E0E3CD"/>
<path d="M114.335 102.532C114.561 102.932 114.209 102.993 114.007 103.11C112.8 103.799 111.587 104.478 110.376 105.159C108.558 106.182 106.742 107.206 104.922 108.223C104.731 108.329 104.479 108.614 104.305 108.332C104.102 108 104.492 107.9 104.698 107.783C107.721 106.069 110.747 104.36 113.779 102.662C113.936 102.575 114.105 102.33 114.335 102.532Z" fill="#E0E3CD"/>
<path d="M109.917 99.3383C110.221 99.2602 110.517 99.3179 110.812 99.3931C108.043 100.966 105.276 102.541 102.504 104.107C102.334 104.203 102.091 104.422 101.941 104.158C101.767 103.853 102.096 103.768 102.291 103.658C104.832 102.217 107.374 100.778 109.917 99.3383Z" fill="#E0E3CD"/>
<path d="M108.682 98.178C108.782 98.3399 108.881 98.5018 108.981 98.6636C106.703 99.937 104.426 101.211 102.147 102.483C101.959 102.588 101.768 102.688 101.577 102.787C101.419 102.87 101.258 103.071 101.096 102.804C100.939 102.546 101.162 102.473 101.324 102.38C102.302 101.824 103.283 101.273 104.26 100.715C105.735 99.8715 107.208 99.0238 108.682 98.178Z" fill="#E0E3CD"/>
<path d="M104.801 91.279C104.882 91.4193 104.962 91.5592 105.043 91.6995C102.612 93.084 100.181 94.4677 97.7501 95.8535C97.5713 95.9554 97.3902 96.1779 97.2161 95.8771C97.0488 95.5878 97.3097 95.5124 97.4934 95.4085C99.9293 94.0324 102.365 92.6555 104.801 91.279Z" fill="#E0E3CD"/>
<path d="M107.147 95.4467C107.231 95.5856 107.315 95.7249 107.399 95.8639C104.981 97.2314 102.564 98.5989 100.147 99.966C99.962 100.071 99.741 100.25 99.585 99.9947C99.4106 99.7087 99.7224 99.6368 99.8906 99.5414C102.307 98.1729 104.728 96.8106 107.147 95.4467Z" fill="#E0E3CD"/>
<path d="M105.565 92.6407C105.643 92.7819 105.721 92.9231 105.799 93.0644C103.853 94.1849 101.908 95.307 99.9608 96.4239C99.4844 96.6974 99.0002 96.9576 98.5158 97.2165C98.3453 97.3078 98.1561 97.5599 97.9785 97.252C97.8048 96.9508 98.1156 96.8786 98.2751 96.787C99.7469 95.9416 101.228 95.1122 102.704 94.2748C103.659 93.7331 104.612 93.1856 105.565 92.6407Z" fill="#E0E3CD"/>
<path d="M106.331 94.0049C106.43 94.1691 106.529 94.3332 106.629 94.497C104.234 95.84 101.839 97.1843 99.4416 98.5243C99.2496 98.6317 99.0064 98.9 98.8301 98.6098C98.6551 98.3215 98.9915 98.218 99.1855 98.1071C101.466 96.8031 103.75 95.504 106.032 94.2023C106.136 94.1436 106.232 94.071 106.331 94.0049Z" fill="#E0E3CD"/>
<path d="M107.916 96.8141C107.997 96.9524 108.077 97.0904 108.158 97.2287C105.709 98.6285 103.26 100.028 100.812 101.428C100.65 101.52 100.475 101.697 100.335 101.428C100.151 101.074 100.517 101.021 100.684 100.926C102.715 99.7593 104.758 98.6117 106.797 97.458C107.172 97.2458 107.543 97.0288 107.916 96.8141Z" fill="#E0E3CD"/>
<path d="M96.4401 94.1943C96.7055 94.0333 96.9668 93.865 97.2367 93.7125C99.1922 92.6088 101.147 91.5028 103.112 90.4165C103.275 90.3265 103.511 89.9783 103.699 90.3314C103.842 90.6019 103.551 90.7399 103.342 90.8573C101.198 92.0645 99.0545 93.274 96.9044 94.4709C96.7667 94.5477 96.6065 94.7885 96.4118 94.5547C96.3179 94.4425 96.2664 94.2987 96.4401 94.1943Z" fill="#E0E3CD"/>
<path d="M103.923 85.5153C106.517 90.1134 109.11 94.7118 111.711 99.3234C111.539 99.4088 111.005 99.6468 110.318 99.5198C109.577 99.3824 109.146 98.9094 109.027 98.7691C108.21 97.4938 107.394 96.1647 106.585 94.7811C104.919 91.9323 103.461 89.1596 102.184 86.5023C102.727 86.1093 103.313 85.7904 103.923 85.5153Z" fill="#C83F43"/>
<path d="M145.64 116.6C142.889 114.346 140.144 112.084 137.397 109.824C136.026 108.634 134.633 107.471 133.169 106.396C132.706 106.186 132.586 106.619 132.404 106.847C130.522 109.202 128.655 111.57 126.786 113.936C124.09 117.352 121.437 120.802 118.694 124.181C118.429 124.507 118.12 124.828 118.163 125.306C118.201 125.446 118.26 125.581 118.365 125.675C119.511 126.684 120.692 127.65 121.91 128.571C122.066 128.689 122.244 128.768 122.439 128.714C122.52 129.114 122.813 129.362 123.108 129.602C125.753 131.756 128.403 133.906 131.067 136.036C131.286 136.211 131.487 136.434 131.814 136.366C136.472 130.137 141.126 123.907 145.791 117.684C146.129 117.234 146.041 116.929 145.64 116.6ZM136.069 126.715C135.267 127.715 134.542 128.775 133.795 129.817C133.141 130.731 133.056 130.745 132.201 130.064C130.442 128.661 128.704 127.233 126.951 125.823C126.541 125.493 126.159 125.109 125.628 124.966C125.613 124.667 125.324 124.523 125.131 124.341C124.55 123.797 123.903 123.332 123.291 122.825C122.823 122.438 122.757 122.088 123.172 121.614C123.864 120.824 124.461 119.955 125.129 119.143C126.445 117.543 126.436 117.554 128.068 118.871C128.475 119.199 128.801 119.716 129.425 119.666C129.465 120.149 129.86 120.377 130.187 120.643C132.086 122.188 133.966 123.759 135.871 125.299C136.419 125.742 136.544 126.123 136.069 126.715Z" fill="#72A0B3"/>
<path d="M132.303 105.689C132.182 105.569 132.071 105.439 131.94 105.331C130.382 104.045 129.665 104.121 128.419 105.703C126.73 107.847 125.041 109.99 123.355 112.137C120.423 115.872 117.493 119.609 114.563 123.346C114.556 123.516 114.67 123.631 114.804 123.629C115.652 123.616 116.319 124.104 117.048 124.418C117.105 124.423 117.157 124.418 117.209 124.414C117.526 124.743 117.957 124.942 118.266 125.281C120.031 123.024 121.794 120.765 123.561 118.511C124.925 116.771 126.288 115.032 127.662 113.301C129.492 110.995 131.333 108.697 133.169 106.396C132.93 106.099 132.644 105.86 132.303 105.689Z" fill="#39778D"/>
<path d="M115.894 124.481C115.473 124.139 115.044 124.155 114.715 124.533C114.644 124.543 114.571 124.556 114.496 124.577C113.294 125.372 113.214 126.26 114.264 127.186C115.097 127.92 115.991 128.581 116.85 129.283C120.53 132.291 124.21 135.298 127.906 138.285C128.266 138.576 128.596 138.997 129.162 138.87C129.567 138.335 129.971 137.801 130.376 137.266C130.538 137.074 130.701 136.883 130.863 136.692C125.876 132.619 120.893 128.54 115.894 124.481Z" fill="#F6F7E0"/>
<path d="M125.607 125.156C124.676 124.378 123.757 123.586 122.81 122.829C122.399 122.5 122.302 122.213 122.658 121.775C123.729 120.457 124.796 119.134 125.826 117.784C126.241 117.24 126.565 117.241 127.061 117.681C127.844 118.374 128.684 119.003 129.5 119.66C131.815 121.579 134.115 123.518 136.46 125.4C136.956 125.797 136.921 126.053 136.595 126.487C135.571 127.85 134.542 129.212 133.571 130.613C133.193 131.157 132.951 131.048 132.52 130.697C130.229 128.833 127.914 127 125.607 125.156Z" fill="#C83F43"/>
<path d="M118.384 131.35C117.022 130.002 112.798 127.447 112.915 125.966C113.218 124.469 114.591 122.646 116.293 123.691C118.764 125.275 120.633 127.312 123.092 129.173C125.852 131.869 129.653 133.827 131.676 136.58C130.377 137.597 127.421 133.79 126.407 133.354C123.133 130.715 120.023 128.174 116.759 125.521C116.167 125.097 115.661 124.318 114.814 124.61C112.21 126.169 115.259 127.412 116.506 128.631C120.806 132.378 125.494 135.461 129.386 139.364C129.566 141.355 118.187 131.574 118.384 131.35Z" fill="#72A0B3"/>
<path d="M54.6546 78.2522C55.2053 79.2408 55.7561 80.2294 56.3068 81.2177C56.4374 81.418 56.4725 81.6405 56.4313 81.8694C56.2608 82.8235 56.7147 83.4271 57.4347 84.0059C58.42 84.7979 59.3693 84.9716 60.4341 84.2439C62.0217 84.1233 63.5282 84.6192 65.0578 84.8962C69.611 85.721 74.1652 86.5387 78.7162 87.3764C81.2479 87.8424 83.7803 88.3019 86.3139 88.7565C86.6672 88.82 87.023 88.8697 87.3215 89.0948C87.7355 89.1854 88.1466 89.2953 88.5645 89.3611C88.973 89.4253 89.298 89.5884 89.1969 90.0444C89.1062 90.4542 88.7356 90.4381 88.3927 90.3768C86.3004 90.0018 84.2075 89.6287 82.1149 89.2537C75.3886 88.0491 68.6614 86.8483 61.9374 85.6317C61.3731 85.5295 60.8771 85.5059 60.3466 85.8139C58.3084 86.9979 54.6034 84.3519 55.0493 82.0235C55.1632 81.4286 55.0808 80.9246 54.6607 80.4851C53.7358 79.8022 53.3061 78.8545 53.1973 77.7353C49.3357 70.8408 45.4738 63.9463 41.6125 57.0514C41.4334 56.7316 41.2108 56.3543 41.6199 56.1009C42.0806 55.8155 42.3142 56.1889 42.5152 56.5581C42.7333 56.9583 42.9778 57.3436 43.2107 57.7353C43.5807 57.9127 43.8004 58.2287 43.9924 58.5747C47.0192 64.0275 50.1094 69.4446 53.096 74.9197C53.3813 75.6936 53.9247 76.324 54.2824 77.0579C54.4677 77.438 54.7128 77.7966 54.6546 78.2522Z" fill="#C83F43"/>
<path d="M53.1973 77.7354C53.6853 78.6521 54.173 79.5688 54.6607 80.4852C53.6261 81.9416 52.5919 83.3985 51.5084 84.9243C51.1024 84.3461 51.484 83.5374 50.9947 83.3291C50.5533 83.1415 49.9312 83.381 49.1346 83.4562C50.57 81.4351 51.8835 79.5852 53.1973 77.7354Z" fill="#39778D"/>
<path d="M46.8619 58.8905C46.7023 58.6803 46.5457 58.491 46.2587 58.4291C45.2403 58.2089 44.2263 57.9683 43.2107 57.7355C46.4553 63.5557 49.6999 69.3755 52.9445 75.1953C54.2521 75.2817 55.2085 74.63 56.0401 73.7156C53.5795 68.4014 50.3941 63.5383 46.8619 58.8905Z" fill="#F0A9AA"/>
<path d="M86.9673 88.5305C86.3008 87.0131 85.3338 85.978 83.5413 85.7217C81.8682 85.4824 80.2456 84.902 78.5924 84.5074C73.342 83.2537 68.0936 81.9839 62.6869 81.5812C62.4737 81.5654 62.2089 81.6789 61.9387 81.3742C64.4492 81.181 66.8175 81.4248 69.1793 81.7937C74.4573 82.6185 79.6269 83.9066 84.7377 85.4483C85.006 85.5292 85.4068 85.8381 85.5622 85.3425C85.6789 84.971 85.2771 84.9843 85.0468 84.9165C78.5769 83.0125 72.0723 81.2729 65.3165 80.7148C65.1386 80.6999 64.8568 80.8386 64.7734 80.4591C65.0813 80.4213 65.3695 80.3768 65.6597 80.3517C70.1573 79.9654 74.615 80.411 79.0592 81.0382C81.0337 81.3168 82.9931 81.7021 84.9612 82.0281C85.19 82.0661 85.521 82.2425 85.5844 81.8201C85.6339 81.4886 85.3209 81.5077 85.1185 81.439C85.0265 81.4077 84.9259 81.4029 84.8293 81.3842C79.5214 80.3607 74.1874 79.5678 68.7637 79.5968C67.5789 79.6033 66.3941 79.6675 65.2093 79.7049C65.4352 79.5175 65.6745 79.4424 65.919 79.3953C69.6973 78.6676 73.5206 78.5005 77.3532 78.555C79.7402 78.5889 82.1255 78.7453 84.5122 78.831C84.7306 78.8388 85.0816 79.0361 85.1475 78.6192C85.2305 78.0949 84.793 78.2648 84.5488 78.2361C83.9971 78.1716 83.4412 78.1349 82.886 78.1062C76.9936 77.8018 71.1079 77.7009 65.284 78.892C64.1909 79.1154 63.1235 79.465 61.8274 79.8148C63.7041 78.2874 65.5043 77.0527 67.3766 75.9165C71.6953 73.2953 76.2302 71.1091 80.8645 69.118C81.1302 69.0039 81.6375 68.969 81.4339 68.506C81.2582 68.1068 80.9172 68.438 80.6786 68.5354C78.0413 69.6126 75.4613 70.8186 72.9245 72.1122C68.5427 74.3465 64.2909 76.7925 60.4624 80.1763C60.862 78.89 61.2721 77.786 61.5465 76.6487C63.0485 70.4288 63.0932 64.1121 62.7262 57.7721C62.7034 57.3794 62.6693 56.987 62.6361 56.5949C62.6223 56.433 62.6133 56.2434 62.391 56.246C62.1726 56.2486 62.0133 56.355 62.0236 56.6062C62.0317 56.8025 62.0542 56.9983 62.0667 57.1946C62.3981 62.377 62.3958 67.5509 61.6691 72.7059C61.5868 73.2895 61.4806 73.8699 61.3751 74.45C61.2766 74.9897 61.1641 75.5269 61.0576 76.0654C61.3214 69.6126 60.6658 63.2627 59.6386 56.9399C59.5865 56.6184 59.7666 55.9681 59.1795 56.0571C58.6619 56.1354 59.018 56.6626 59.0544 56.9651C59.3182 59.1461 59.672 61.3171 59.893 63.5023C60.3849 68.3687 60.7545 73.2421 59.9722 78.1165C59.8638 78.792 59.794 79.4917 59.3549 80.1676C59.0341 78.7562 58.7867 77.4368 58.4326 76.1467C56.6732 69.7361 54.0456 63.6577 51.2987 57.6283C51.1742 57.3549 51.1678 56.7306 50.6775 56.9541C50.2079 57.1682 50.664 57.5793 50.7602 57.8843C50.8676 58.2258 51.0517 58.5425 51.1993 58.8714C53.4676 63.9292 55.6145 69.0358 57.268 74.3352C57.6994 75.7175 58.1167 77.1089 58.1759 78.5966C57.9034 77.9472 57.6312 77.2981 57.3588 76.6487C56.2065 76.8112 55.1896 77.2053 54.5771 78.2867C54.8283 79.4985 55.4257 80.5255 56.2434 81.4345C57.5704 82.1361 58.9331 82.7829 59.9973 83.8889C60.0484 83.9186 60.1012 83.9411 60.1543 83.9634C60.1591 84.1827 60.3868 84.2829 60.5844 84.3997C65.5394 85.2757 70.4935 86.1557 75.4494 87.0263C79.4059 87.7212 83.3644 88.4048 87.3218 89.0935C87.2034 88.9068 87.0854 88.7188 86.9673 88.5305Z" fill="#F0A9AA"/>
<path d="M52.9445 75.1951C54.0302 74.8146 55.0162 74.2255 56.0401 73.7154C56.6677 74.6086 57.0415 75.6159 57.3584 76.6493C56.466 77.1991 55.463 77.5612 54.6546 78.2522C54.0694 77.2417 53.4064 76.275 52.9445 75.1951Z" fill="#39778D"/>
<path d="M60.2224 83.7199C60.3428 83.9472 60.4631 84.1742 60.5837 84.4012C59.5726 85.2325 58.7649 85.2989 57.7769 84.6315C56.0263 83.4491 55.7918 82.9041 56.3068 81.2171C57.8194 81.7259 59.1509 82.5185 60.2224 83.7199Z" fill="#39778D"/>
<defs>
<linearGradient id="paint0_linear_94_73755" x1="42.9202" y1="100.137" x2="42.9202" y2="102.992" gradientUnits="userSpaceOnUse">
<stop stop-color="#F0A9AA"/>
<stop offset="1" stop-color="#8A6162"/>
</linearGradient>
<linearGradient id="paint1_linear_94_73755" x1="72.0882" y1="62.2721" x2="72.0882" y2="65.1776" gradientUnits="userSpaceOnUse">
<stop stop-color="#F0A9AA"/>
<stop offset="1" stop-color="#8A6162"/>
</linearGradient>
<linearGradient id="paint2_linear_94_73755" x1="55.1117" y1="78.4193" x2="55.1117" y2="81.4525" gradientUnits="userSpaceOnUse">
<stop stop-color="#F0A9AA"/>
<stop offset="1" stop-color="#8A6162"/>
</linearGradient>
<linearGradient id="paint3_linear_94_73755" x1="53.1721" y1="136.069" x2="53.1721" y2="140.537" gradientUnits="userSpaceOnUse">
<stop stop-color="#F0A9AA"/>
<stop offset="1" stop-color="#8A6162"/>
</linearGradient>
<linearGradient id="paint4_linear_94_73755" x1="61.1596" y1="89.9005" x2="61.1596" y2="94.1935" gradientUnits="userSpaceOnUse">
<stop stop-color="#F0A9AA"/>
<stop offset="1" stop-color="#8A6162"/>
</linearGradient>
<linearGradient id="paint5_linear_94_73755" x1="86.4594" y1="75.9977" x2="86.4594" y2="80.0518" gradientUnits="userSpaceOnUse">
<stop stop-color="#F0A9AA"/>
<stop offset="1" stop-color="#8A6162"/>
</linearGradient>
<linearGradient id="paint6_linear_94_73755" x1="50.0174" y1="124.604" x2="50.0174" y2="128.722" gradientUnits="userSpaceOnUse">
<stop stop-color="#F0A9AA"/>
<stop offset="1" stop-color="#8A6162"/>
</linearGradient>
<linearGradient id="paint7_linear_94_73755" x1="84.8182" y1="104.322" x2="84.8182" y2="108.714" gradientUnits="userSpaceOnUse">
<stop stop-color="#F0A9AA"/>
<stop offset="1" stop-color="#8A6162"/>
</linearGradient>
<linearGradient id="paint8_linear_94_73755" x1="60.6291" y1="113.902" x2="60.6291" y2="118.21" gradientUnits="userSpaceOnUse">
<stop stop-color="#F0A9AA"/>
<stop offset="1" stop-color="#8A6162"/>
</linearGradient>
<linearGradient id="paint9_linear_94_73755" x1="69.6794" y1="109.978" x2="69.6794" y2="113.172" gradientUnits="userSpaceOnUse">
<stop stop-color="#F0A9AA"/>
<stop offset="1" stop-color="#8A6162"/>
</linearGradient>
<linearGradient id="paint10_linear_94_73755" x1="82.5112" y1="90.3259" x2="82.5112" y2="93.4587" gradientUnits="userSpaceOnUse">
<stop stop-color="#F0A9AA"/>
<stop offset="1" stop-color="#8A6162"/>
</linearGradient>
<linearGradient id="paint11_linear_94_73755" x1="100.587" y1="121.382" x2="100.587" y2="125.537" gradientUnits="userSpaceOnUse">
<stop stop-color="#F0A9AA"/>
<stop offset="1" stop-color="#8A6162"/>
</linearGradient>
<linearGradient id="paint12_linear_94_73755" x1="92.2682" y1="130.964" x2="92.2682" y2="134.346" gradientUnits="userSpaceOnUse">
<stop stop-color="#F0A9AA"/>
<stop offset="1" stop-color="#8A6162"/>
</linearGradient>
<linearGradient id="paint13_linear_94_73755" x1="53.0587" y1="104.077" x2="53.0587" y2="107.43" gradientUnits="userSpaceOnUse">
<stop stop-color="#F0A9AA"/>
<stop offset="1" stop-color="#8A6162"/>
</linearGradient>
<linearGradient id="paint14_linear_94_73755" x1="86.3685" y1="116.849" x2="86.3685" y2="119.677" gradientUnits="userSpaceOnUse">
<stop stop-color="#F0A9AA"/>
<stop offset="1" stop-color="#8A6162"/>
</linearGradient>
<linearGradient id="paint15_linear_94_73755" x1="65.1583" y1="137.021" x2="65.1583" y2="139.842" gradientUnits="userSpaceOnUse">
<stop stop-color="#F0A9AA"/>
<stop offset="1" stop-color="#8A6162"/>
</linearGradient>
<linearGradient id="paint16_linear_94_73755" x1="72.5121" y1="98.0684" x2="72.5121" y2="100.785" gradientUnits="userSpaceOnUse">
<stop stop-color="#F0A9AA"/>
<stop offset="1" stop-color="#8A6162"/>
</linearGradient>
<linearGradient id="paint17_linear_94_73755" x1="73.8763" y1="151.141" x2="73.8763" y2="154.335" gradientUnits="userSpaceOnUse">
<stop stop-color="#F0A9AA"/>
<stop offset="1" stop-color="#8A6162"/>
</linearGradient>
<linearGradient id="paint18_linear_94_73755" x1="74.6918" y1="125.817" x2="74.6918" y2="130.113" gradientUnits="userSpaceOnUse">
<stop stop-color="#F0A9AA"/>
<stop offset="1" stop-color="#8A6162"/>
</linearGradient>
<linearGradient id="paint19_linear_94_73755" x1="102.931" y1="109.918" x2="102.931" y2="112.989" gradientUnits="userSpaceOnUse">
<stop stop-color="#F0A9AA"/>
<stop offset="1" stop-color="#8A6162"/>
</linearGradient>
<linearGradient id="paint20_linear_94_73755" x1="90.4651" y1="143.875" x2="90.4651" y2="147.342" gradientUnits="userSpaceOnUse">
<stop stop-color="#F0A9AA"/>
<stop offset="1" stop-color="#8A6162"/>
</linearGradient>
<linearGradient id="paint21_linear_94_73755" x1="106.524" y1="97.0343" x2="106.524" y2="101.648" gradientUnits="userSpaceOnUse">
<stop stop-color="#F0A9AA"/>
<stop offset="1" stop-color="#8A6162"/>
</linearGradient>
</defs>
</svg>
