<svg width="220" height="189" viewBox="0 0 220 189" fill="none" xmlns="http://www.w3.org/2000/svg">
<path opacity="0.5" d="M211.549 103.217L150.657 67.9914C147.349 66.0777 141.566 66.309 137.741 68.5081L9.94406 141.98C6.1187 144.179 5.69851 147.514 9.00666 149.428L69.899 184.654C73.2066 186.568 78.989 186.336 82.8149 184.137L210.611 110.665C214.437 108.465 214.856 105.131 211.549 103.217Z" fill="#72A0B3"/>
<path d="M68.1277 171.606L4.75675 134.945C2.67485 133.741 1.70475 132.117 1.77342 130.428L1.75925 130.432L1.78486 121.246L5.30883 125.37C5.53719 125.22 5.76772 125.069 6.01787 124.926L135.655 50.3954C140.802 47.4364 148.582 47.125 153.032 49.7002L215.513 85.8453C216.778 84.4624 219.429 81.5415 219.429 81.5415L219.399 90.527L219.397 90.5259C219.491 92.5518 218.048 94.7094 215.141 96.3803L85.504 170.91C80.3575 173.869 72.5776 174.18 68.1277 171.606Z" fill="#1F5566"/>
<path d="M33.8603 149.115L37.5102 151.221C37.9947 151.5 38.3876 151.203 38.3876 150.558C38.3876 149.912 37.9947 149.163 37.5102 148.883L33.8603 146.778C33.3758 146.498 32.9828 146.795 32.9828 147.44C32.9823 148.086 33.3753 148.836 33.8603 149.115Z" fill="#72A0B3"/>
<path d="M135.655 50.395C140.802 47.4359 148.582 47.1245 153.032 49.6997L215.513 85.8448C216.778 84.4614 219.429 81.541 219.429 81.541L219.399 90.5265L219.397 90.5254C219.491 92.5513 218.048 94.7089 215.141 96.3798L85.504 170.91C82.8187 172.454 79.419 173.27 76.1474 173.339L76.2711 84.5365L135.655 50.395Z" fill="#578B9F"/>
<path d="M216.43 77.1244L153.059 40.4643C148.609 37.8896 140.829 38.2005 135.682 41.1595L6.04469 115.69C0.897715 118.649 0.333102 123.135 4.78303 125.71L68.154 162.37C72.6039 164.945 80.3838 164.634 85.5308 161.675L215.168 87.1438C220.315 84.1853 220.88 79.6991 216.43 77.1244Z" fill="#95BCCC"/>
<path d="M68.1059 163.35L4.73494 126.69C2.43995 125.362 1.48947 123.526 1.8023 121.653C1.91457 123.174 2.89122 124.615 4.78291 125.71L68.1539 162.37C72.6038 164.944 80.3837 164.634 85.5306 161.675L215.168 87.1439C217.66 85.7109 219.068 83.9202 219.362 82.1611C219.514 84.2186 218.078 86.423 215.12 88.1244L85.4827 162.655C80.3357 165.614 72.5558 165.926 68.1059 163.35Z" fill="white"/>
<path d="M211.549 78.5688L150.657 43.3427C147.349 41.429 141.566 41.6604 137.741 43.8594L9.94406 117.332C6.1187 119.531 5.69851 122.865 9.00666 124.779L69.899 160.005C73.2066 161.919 78.989 161.688 82.8149 159.488L210.611 86.0168C214.437 83.8172 214.856 80.4825 211.549 78.5688Z" fill="#72A0B3"/>
<path d="M85.238 141.71L42.2691 116.927L45.0115 115.345L87.9804 140.128L85.238 141.71Z" fill="#95BCCC"/>
<path d="M55.3409 134.484L33.584 121.936L36.3264 120.354L58.0834 132.903L55.3409 134.484Z" fill="#95BCCC"/>
<path d="M65.8992 140.574L58.8431 136.504L61.5855 134.923L68.6417 138.992L65.8992 140.574Z" fill="#F0A9AA"/>
<path d="M76.5529 146.719L69.4968 142.649L72.2392 141.067L79.2953 145.137L76.5529 146.719Z" fill="white"/>
<path d="M55.584 129.616L37.9265 119.432L40.669 117.849L58.327 128.034L55.584 129.616Z" fill="white"/>
<path d="M77.1388 142.048L59.4808 131.863L62.2237 130.281L79.8812 140.466L77.1388 142.048Z" fill="#95BCCC"/>
<path d="M64.0658 120.278C63.1824 120.787 61.7496 120.787 60.8661 120.278C59.9827 119.768 59.9827 118.942 60.8661 118.432C61.7496 117.922 63.1824 117.922 64.0658 118.432C64.9498 118.942 64.9498 119.768 64.0658 120.278Z" fill="#F0A9AA"/>
<path d="M68.8471 123.035C67.9637 123.545 66.5309 123.545 65.6474 123.035C64.764 122.526 64.764 121.699 65.6474 121.19C66.5309 120.68 67.9637 120.68 68.8471 121.19C69.7306 121.699 69.7306 122.526 68.8471 123.035Z" fill="white"/>
<path d="M73.6284 125.792C72.7449 126.302 71.3121 126.302 70.4287 125.792C69.5453 125.283 69.5453 124.456 70.4287 123.947C71.3121 123.437 72.7449 123.437 73.6284 123.947C74.5118 124.457 74.5118 125.283 73.6284 125.792Z" fill="#95BCCC"/>
<path d="M78.4091 128.55C77.5257 129.06 76.0929 129.06 75.2094 128.55C74.326 128.04 74.326 127.214 75.2094 126.704C76.0929 126.195 77.5257 126.195 78.4091 126.704C79.2931 127.214 79.2931 128.04 78.4091 128.55Z" fill="#F0A9AA"/>
<path d="M83.1904 131.308C82.307 131.817 80.8742 131.817 79.9907 131.308C79.1073 130.798 79.1073 129.972 79.9907 129.462C80.8742 128.952 82.307 128.952 83.1904 129.462C84.0739 129.972 84.0739 130.798 83.1904 131.308Z" fill="white"/>
<path d="M179.292 78.8405L172.057 74.6679L174.869 73.046L182.104 77.2186L179.292 78.8405Z" fill="#F0A9AA"/>
<path d="M189.366 84.6508L182.131 80.4782L184.943 78.8563L192.178 83.0289L189.366 84.6508Z" fill="white"/>
<path d="M146.977 60.0278L139.742 55.8552L142.554 54.2333L149.789 58.4059L146.977 60.0278Z" fill="white"/>
<path d="M177.679 83.0459L167.605 77.2355L170.417 75.6136L180.491 81.4245L177.679 83.0459Z" fill="white"/>
<path d="M184.914 87.219L180.494 84.6694L183.305 83.0475L187.726 85.5971L184.914 87.219Z" fill="#95BCCC"/>
<path opacity="0.5" d="M127.084 181.665L152.299 167.122C154.291 165.974 157.52 165.908 160.136 166.839L167.074 162.782C160.565 157.936 159.975 151.301 165.304 146.131C166.347 147.602 167.892 148.984 169.963 150.179C178.314 154.995 191.853 154.995 200.204 150.179C203.463 148.299 205.429 145.962 206.144 143.526C215.667 149.342 215.5 158.507 205.629 164.201C195.878 169.825 180.264 169.974 170.165 164.682L163.167 168.774C164.348 170.197 164.087 171.832 162.277 172.876L137.061 187.419C134.675 188.795 130.508 188.623 127.752 187.034C124.997 185.445 124.698 183.041 127.084 181.665Z" fill="#72A0B3"/>
<path opacity="0.5" d="M200.204 135.964C191.852 131.147 178.314 131.147 169.963 135.964C166.5 137.961 164.478 140.472 163.887 143.071C164.408 145.364 166.046 147.587 168.801 149.45C169.488 148.888 170.261 148.35 171.134 147.847C179.484 143.031 193.024 143.031 201.375 147.847C201.786 148.084 202.171 148.331 202.542 148.582C204.592 146.914 205.837 145.017 206.28 143.071C205.688 140.472 203.666 137.961 200.204 135.964Z" fill="#95BCCC"/>
<path d="M163.38 146.916L166.642 142.667L176.548 138.068L185.083 137.312L195.078 138.534L202.012 142.114L206.441 144.937L207.237 140.338L205.741 135.041C205.741 135.041 201.954 132.539 201.721 132.305C201.488 132.072 192.864 128.988 192.864 128.988L184.24 128.406L177.306 129.279L170.255 131.374L165.594 134.634L162.098 139.058L161.704 144.588L163.38 146.916Z" fill="#C83F43"/>
<path d="M209.633 141.458V150.409L207.237 146.528L209.633 141.458Z" fill="#C83F43"/>
<path d="M169.963 141.923C178.313 137.107 191.853 137.107 200.204 141.923C202.83 143.438 204.629 145.249 205.604 147.17C206.34 146.513 207.287 145.996 207.68 145.11C206.484 143.483 204.742 141.958 202.442 140.632C192.855 135.102 177.311 135.102 167.724 140.631C165.626 141.841 163.987 143.216 162.808 144.683C163.194 145.585 163.78 146.457 164.56 147.177C165.533 145.254 167.332 143.44 169.963 141.923Z" fill="#C83F43"/>
<path opacity="0.5" d="M200.204 135.964C191.852 131.147 178.314 131.147 169.963 135.964C166.5 137.961 164.478 140.472 163.887 143.071C164.478 145.671 166.5 148.183 169.963 150.18C178.314 154.996 191.852 154.996 200.204 150.18C203.666 148.183 205.688 145.671 206.279 143.072C205.688 140.472 203.666 137.961 200.204 135.964Z" fill="#95BCCC"/>
<path d="M207.68 145.11C207.513 145.487 207.243 145.795 206.934 146.078L206.926 145.985L204.712 147.304L201.992 149.826L198.224 151.495L193.019 153.358L188.396 154.444L182.025 154.716L177.908 154.289L169.75 152.155L164.434 147.46C164.477 147.365 164.511 147.271 164.559 147.177C163.779 146.457 163.193 145.586 162.807 144.683C162.663 144.863 162.527 145.043 162.397 145.225L160.533 141.347V150.644L160.537 150.635C160.534 154.261 162.926 157.888 167.724 160.655C177.311 166.185 192.855 166.185 202.442 160.656C209.73 156.453 211.471 150.266 207.68 145.11Z" fill="#C83F43"/>
<path d="M166.351 149.153L164.434 147.46C164.478 147.366 164.512 147.271 164.559 147.177C163.78 146.458 163.194 145.586 162.807 144.684C162.663 144.863 162.528 145.043 162.397 145.225L160.534 141.347V150.644L160.538 150.636C160.535 153.896 162.475 157.154 166.351 159.79V149.153H166.351Z" fill="#F0A9AA"/>
<path d="M202.442 131.446C192.855 125.917 177.311 125.916 167.724 131.446C158.137 136.975 158.137 145.94 167.724 151.47C177.311 156.999 192.855 156.999 202.442 151.47C212.03 145.941 212.029 136.976 202.442 131.446ZM200.204 150.179C191.854 154.995 178.314 154.995 169.963 150.179C161.612 145.362 161.612 137.553 169.963 132.737C178.313 127.921 191.852 127.921 200.204 132.737C208.555 137.554 208.555 145.363 200.204 150.179Z" fill="#F0A9AA"/>
<path d="M151.667 161.617L165.273 153.708L167.083 156.635L153.414 164.588L151.667 161.617Z" fill="#95BCCC"/>
<path d="M153.76 163.806C153.76 164.583 153.214 164.898 152.54 164.509C151.866 164.121 151.32 163.176 151.32 162.399C151.32 161.622 151.866 161.307 152.54 161.696C153.214 162.084 153.76 163.029 153.76 163.806Z" fill="#983BE9"/>
<path d="M153.76 163.806C153.76 164.583 153.214 164.898 152.54 164.509C151.866 164.121 151.32 163.176 151.32 162.399C151.32 161.622 151.866 161.307 152.54 161.696C153.214 162.084 153.76 163.029 153.76 163.806Z" fill="#983BE9"/>
<path d="M167.371 155.894C167.371 156.67 166.825 156.986 166.151 156.597C165.478 156.208 164.932 155.264 164.932 154.487C164.932 153.71 165.478 153.395 166.151 153.783C166.825 154.172 167.371 155.116 167.371 155.894Z" fill="#95BCCC"/>
<path d="M160.453 164.38C160.453 161.036 158.104 156.971 155.205 155.299C153.722 154.443 152.384 154.385 151.43 154.976L151.428 154.973L122.661 171.675L130.178 184.457L158.641 167.903C158.837 167.82 159.02 167.715 159.188 167.584L159.212 167.571L159.211 167.569C159.985 166.961 160.453 165.869 160.453 164.38Z" fill="#578B9F"/>
<path d="M124.743 175.215L156.94 156.645C156.396 156.112 155.814 155.65 155.206 155.299C153.722 154.443 152.385 154.385 151.43 154.976L151.429 154.973L122.662 171.675L124.743 175.215Z" fill="#95BCCC"/>
<path d="M130.124 184.488C132.174 183.306 132.173 179.473 130.124 175.927C128.075 172.381 124.752 170.465 122.702 171.647C120.653 172.829 120.653 176.662 122.703 180.208C124.752 183.754 128.075 185.67 130.124 184.488Z" fill="#95BCCC"/>
<path d="M127.407 179.531C127.407 181.417 125.876 182.947 123.989 182.947C122.101 182.947 120.57 181.418 120.57 179.531C120.57 177.645 122.101 176.116 123.989 176.116C125.876 176.116 127.407 177.645 127.407 179.531Z" fill="#578B9F"/>
<path d="M123.363 178.28C123.363 178.838 122.911 179.289 122.353 179.289C121.795 179.289 121.343 178.837 121.343 178.28C121.343 177.723 121.795 177.271 122.353 177.271C122.911 177.271 123.363 177.723 123.363 178.28Z" fill="white"/>
<path d="M126.807 171.788C125.256 170.894 123.867 170.873 122.906 171.552C123.837 171.119 125.067 171.232 126.42 172.012C129.319 173.684 131.669 177.75 131.669 181.093C131.669 182.648 131.156 183.765 130.321 184.356C131.384 183.861 132.056 182.651 132.056 180.869C132.056 177.525 129.706 173.46 126.807 171.788Z" fill="white"/>
<path d="M200.204 132.737C191.852 127.921 178.314 127.92 169.963 132.737C165.614 135.245 163.535 138.565 163.716 141.851C163.882 138.827 165.961 135.831 169.963 133.523C178.313 128.707 191.852 128.707 200.204 133.523C204.206 135.831 206.285 138.827 206.451 141.851C206.631 138.565 204.552 135.245 200.204 132.737Z" fill="white"/>
<path d="M202.442 151.47C192.855 157 177.312 157 167.724 151.47C163.104 148.805 160.717 145.342 160.55 141.851C160.371 145.604 162.757 149.391 167.724 152.256C177.311 157.785 192.855 157.786 202.442 152.256C207.409 149.391 209.796 145.605 209.616 141.851C209.449 145.343 207.062 148.805 202.442 151.47Z" fill="white"/>
<g opacity="0.3">
<mask id="mask0_3495_1298" style="mask-type:luminance" maskUnits="userSpaceOnUse" x="50" y="95" width="121" height="65">
<path d="M65.9826 103.923L108.112 127.228L163.78 95.2239L170.526 109.062L82.6645 159.574L50.5248 143.18L65.9826 103.923Z" fill="white"/>
</mask>
<g mask="url(#mask0_3495_1298)">
<path d="M104.235 113.731C101.93 115.06 101.93 117.223 104.235 118.553L143.418 141.152C144.052 141.517 145.08 141.517 145.713 141.152C146.347 140.787 146.347 140.194 145.713 139.828L106.53 117.229C105.49 116.629 105.49 115.654 106.53 115.054L110.327 112.864C109.905 112.23 109.522 111.57 109.148 110.897L104.235 113.731Z" fill="#95BCCC"/>
<path d="M159.73 131.744L120.547 109.145C118.242 107.815 114.491 107.815 112.186 109.145L109.148 110.897C109.522 111.571 109.905 112.231 110.327 112.864L114.481 110.468C115.521 109.869 117.212 109.869 118.252 110.468L157.435 133.068C158.069 133.433 159.096 133.433 159.73 133.068C160.364 132.702 160.364 132.11 159.73 131.744Z" fill="#578B9F"/>
<path d="M160.201 132.453L160.205 77.4118L119.144 54.5451L113.401 54.1667L107.848 57.7601L104.441 60.7229L144.447 124.1L157.509 131.791L160.201 132.453Z" fill="#578B9F"/>
<path d="M145.015 139.404L157.289 132.326V79.1311L144.637 85.0062L145.015 139.404Z" fill="#114252"/>
<path d="M102.507 61.1487V116.1L145.613 140.731L146.188 140.501V85.469L102.507 61.1487Z" fill="#95BCCC"/>
<path d="M144.637 84.605V139.208V140.365V141.423C145.028 141.413 145.415 141.325 145.713 141.153C146.025 140.973 146.182 140.738 146.186 140.503L146.188 140.501V140.493V140.489V85.469L144.637 84.605Z" fill="#578B9F"/>
<path d="M133.206 112.173L112.845 100.43V80.0387L133.206 91.7824V112.173Z" fill="white"/>
<path d="M86.2206 124.385C83.9158 125.714 83.9158 127.877 86.2206 129.207L125.403 151.806C126.037 152.172 127.065 152.172 127.698 151.806C128.332 151.441 128.332 150.848 127.698 150.483L88.5156 127.883C87.4758 127.284 87.4758 126.308 88.5156 125.708L92.3126 123.519C91.8908 122.884 91.5077 122.225 91.1333 121.552L86.2206 124.385Z" fill="#F0A9AA"/>
<path d="M141.716 142.398L102.533 119.799C100.228 118.469 96.477 118.469 94.1722 119.799L91.1338 121.551C91.5082 122.225 91.8913 122.885 92.3132 123.519L96.4672 121.122C97.507 120.523 99.1982 120.523 100.238 121.122L139.421 143.722C140.055 144.087 141.082 144.087 141.716 143.722C142.35 143.356 142.35 142.764 141.716 142.398Z" fill="#C83F43"/>
<path d="M142.187 143.107L142.191 88.066L101.13 65.1993L95.387 64.8209L89.834 68.4143L86.4266 71.3766L126.433 134.754L139.495 142.445L142.187 143.107Z" fill="#C83F43"/>
<path d="M127.001 150.059L139.275 142.98V89.7853L126.623 95.6604L127.001 150.059Z" fill="#DD7475"/>
<path d="M84.493 71.8029V126.754L127.599 151.385L128.174 151.155V96.1232L84.493 71.8029Z" fill="#F0A9AA"/>
<path d="M108.737 72.2575L100.17 67.34C99.1246 66.856 97.5948 66.8871 96.6252 67.4462L88.6742 72.0321C88.0584 72.3876 87.8104 72.8743 87.9243 73.3371L109.572 86.2595L126.96 96.9219L139.275 89.7853L108.737 72.2575Z" fill="white"/>
<path d="M126.623 95.2592V149.862V151.02V152.077C127.014 152.067 127.4 151.979 127.699 151.807C128.011 151.627 128.167 151.392 128.172 151.157L128.174 151.156V151.147V151.143V96.1232L126.623 95.2592Z" fill="#C83F43"/>
<path d="M128.173 96.8364V96.1329L127.962 96.4313L128.173 96.8364Z" fill="white"/>
<path d="M125.404 96.7749L86.2213 74.1755C83.916 72.846 83.916 70.6829 86.2213 69.3534L94.1723 64.7675C96.4771 63.438 100.228 63.438 102.533 64.7675L141.716 87.3669C142.35 87.7322 142.35 88.3251 141.716 88.6904C141.082 89.0557 140.054 89.0557 139.421 88.6904L100.238 66.0911C99.1983 65.4916 97.5072 65.4916 96.4673 66.0911L88.5163 70.6769C87.4764 71.2764 87.4764 72.252 88.5163 72.8514L127.699 95.4508C128.333 95.8161 128.333 96.409 127.699 96.7743C127.065 97.1397 126.038 97.1402 125.404 96.7749Z" fill="#F0A9AA"/>
<path d="M115.192 122.827L94.8311 111.083V90.6929L115.192 102.437V122.827Z" fill="white"/>
<path d="M127.699 96.7748C127.065 97.1401 126.037 97.1401 125.404 96.7748L86.2212 74.1755C85.2282 73.6032 84.6657 72.8753 84.5284 72.1267C84.3464 73.1165 84.9088 74.1433 86.2212 74.9001L125.404 97.4995C126.038 97.8648 127.066 97.8648 127.699 97.4995C128.179 97.2223 128.294 96.8156 128.046 96.4754C127.967 96.5837 127.853 96.6861 127.699 96.7748Z" fill="white"/>
<path d="M67.7102 142.229C65.4054 143.559 65.4054 145.722 67.7102 147.052L106.893 169.651C107.527 170.016 108.555 170.016 109.188 169.651C109.822 169.286 109.822 168.693 109.188 168.327L70.0052 145.728C68.9654 145.128 68.9654 144.152 70.0052 143.552L73.8022 141.363C73.3804 140.728 72.9973 140.069 72.6229 139.396L67.7102 142.229Z" fill="#95BCCC"/>
<path d="M123.205 160.243L84.0226 137.644C81.7173 136.314 77.9666 136.314 75.6618 137.644L72.6234 139.396C72.9978 140.07 73.381 140.73 73.8028 141.363L77.9568 138.967C78.9966 138.367 80.6878 138.367 81.7276 138.967L120.91 161.567C121.544 161.932 122.572 161.932 123.205 161.567C123.839 161.201 123.839 160.609 123.205 160.243Z" fill="#578B9F"/>
<path d="M123.677 160.952L123.681 105.911L82.6193 83.044L76.8766 82.6656L71.3236 86.259L67.9163 89.2218L107.923 152.599L120.985 160.29L123.677 160.952Z" fill="#578B9F"/>
<path d="M108.491 167.903L120.764 160.825V107.63L108.112 113.505L108.491 167.903Z" fill="#114252"/>
<path d="M65.9826 89.6476V144.599L109.088 169.23L109.663 169V113.968L65.9826 89.6476Z" fill="#95BCCC"/>
<path d="M90.2264 90.1021L81.6595 85.1852C80.6137 84.7012 79.0839 84.7323 78.1138 85.2914L70.1627 89.8773C69.5469 90.2328 69.2989 90.7195 69.4128 91.1823L91.0602 104.105L108.448 114.767L120.764 107.63L90.2264 90.1021Z" fill="white"/>
<path d="M108.112 113.104V167.707V168.864V169.922C108.503 169.912 108.89 169.824 109.189 169.652C109.5 169.472 109.657 169.237 109.662 169.001L109.663 169V168.992V168.988V113.968L108.112 113.104Z" fill="#578B9F"/>
<path d="M123.681 106.597V105.911H123.462L123.395 106.377L123.681 106.597Z" fill="white"/>
<path d="M109.663 114.681V113.978L109.451 114.276L109.663 114.681Z" fill="white"/>
<path d="M106.894 114.62L67.7102 92.0203C65.4049 90.6907 65.4049 88.5277 67.7102 87.1981L75.6613 82.6123C77.9661 81.2827 81.7173 81.2827 84.0221 82.6123L123.205 105.212C123.839 105.577 123.839 106.17 123.205 106.535C122.571 106.9 121.543 106.9 120.91 106.535L81.7271 83.9358C80.6873 83.3364 78.9961 83.3364 77.9563 83.9358L70.0052 88.5217C68.9654 89.1211 68.9654 90.0967 70.0052 90.6962L109.188 113.296C109.822 113.661 109.822 114.254 109.188 114.619C108.554 114.984 107.527 114.985 106.894 114.62Z" fill="#95BCCC"/>
<path d="M96.6819 140.672L76.3207 128.929V108.538L96.6819 120.281V140.672Z" fill="white"/>
<path d="M123.205 106.535C122.572 106.9 121.544 106.9 120.91 106.535L81.7276 83.9358C80.6878 83.3363 78.9967 83.3363 77.9568 83.9358L70.0058 88.5216C69.3251 88.9142 69.0929 89.4679 69.3038 89.9715C69.415 89.7058 69.6472 89.4537 70.0058 89.2468L77.9568 84.661C78.9967 84.0615 80.6878 84.0615 81.7276 84.661L120.91 107.26C121.544 107.626 122.572 107.626 123.205 107.26C123.686 106.983 123.8 106.576 123.553 106.236C123.474 106.345 123.359 106.446 123.205 106.535Z" fill="white"/>
<path d="M109.189 114.62C108.555 114.985 107.527 114.985 106.894 114.62L67.7103 92.0202C66.7173 91.448 66.1548 90.72 66.0175 89.9714C65.8355 90.9612 66.3979 91.9881 67.7103 92.7448L106.893 115.344C107.527 115.71 108.555 115.71 109.188 115.344C109.668 115.067 109.783 114.66 109.535 114.32C109.457 114.429 109.342 114.531 109.189 114.62Z" fill="white"/>
</g>
</g>
<mask id="mask1_3495_1298" style="mask-type:luminance" maskUnits="userSpaceOnUse" x="61" y="27" width="113" height="101">
<path d="M61.8422 101.633L108.112 127.228L172.26 90.3495L173.255 34.8989L130.554 27.9644L63.7192 74.5231L61.8422 101.633Z" fill="white"/>
</mask>
<g mask="url(#mask1_3495_1298)">
<path d="M140.111 91.2375L136.839 101.957L128.465 107.714L134.817 110.301L132.914 120.94L140.111 111.684L147.308 112.637L145.404 104.195L151.756 94.2804L143.382 98.183L140.111 91.2375Z" fill="#E8A200"/>
<path d="M155.664 96.5213L151.756 94.2804L145.721 97.093C145.721 97.093 145.742 101.147 145.721 101.243C145.7 101.34 148.209 101.46 148.377 101.46C148.546 101.46 155.664 96.5213 155.664 96.5213Z" fill="#C83F43"/>
<path d="M132.913 120.94L136.821 123.181L138.725 112.542C138.725 112.542 136.832 110.545 136.84 110.545C136.848 110.545 134.709 110.906 134.709 110.906L132.913 120.94Z" fill="#C83F43"/>
<path d="M144.018 93.4785L140.747 104.198L132.373 109.954L138.725 112.542L136.821 123.181L144.018 113.925L151.216 114.878L149.311 106.436L155.664 96.5214L147.29 100.424L144.018 93.4785Z" fill="#F0A9AA"/>
<path d="M137.585 122.199L139.378 112.182L133.584 109.824L141.243 104.559L144.134 95.0824L147.012 101.192L155.081 97.4323L155.665 96.5214L147.291 100.424L144.019 93.4785L140.747 104.198L132.373 109.955L138.725 112.542L136.821 123.181L137.585 122.199Z" fill="white"/>
<path d="M144.018 93.4785L140.111 91.2375L136.839 101.957L140.747 104.198L144.018 93.4785Z" fill="#C83F43"/>
<path d="M128.465 107.714L132.373 109.954L140.747 104.197L136.839 101.957L128.465 107.714Z" fill="#C83F43"/>
<path d="M140.552 104.467L141.147 104.123L136.927 101.67L136.839 101.957L136.562 102.148L140.552 104.467Z" fill="white"/>
<path d="M113.42 106.5L110.148 117.219L101.774 122.976L108.126 125.563L106.223 136.202L113.42 126.946L120.617 127.9L118.713 119.457L125.066 109.543L116.691 113.445L113.42 106.5Z" fill="#E8A200"/>
<path d="M128.973 111.784L125.065 109.543L119.03 112.355C119.03 112.355 119.051 116.409 119.03 116.506C119.009 116.602 121.518 116.722 121.686 116.722C121.855 116.723 128.973 111.784 128.973 111.784Z" fill="#C83F43"/>
<path d="M106.223 136.202L110.13 138.443L112.034 127.804C112.034 127.804 110.14 125.807 110.148 125.807C110.156 125.807 108.018 126.169 108.018 126.169L106.223 136.202Z" fill="#C83F43"/>
<path d="M117.328 108.741L114.056 119.46L105.682 125.217L112.034 127.804L110.13 138.443L117.328 129.187L124.525 130.141L122.621 121.698L128.973 111.784L120.599 115.686L117.328 108.741Z" fill="#F0A9AA"/>
<path d="M110.894 137.461L112.687 127.445L106.894 125.086L114.551 119.822L117.443 110.345L120.32 116.455L128.389 112.695L128.973 111.784L120.599 115.686L117.327 108.741L114.055 119.461L105.681 125.217L112.033 127.804L110.13 138.443L110.894 137.461Z" fill="white"/>
<path d="M117.328 108.741L113.42 106.5L110.148 117.219L114.056 119.46L117.328 108.741Z" fill="#C83F43"/>
<path d="M101.774 122.976L105.682 125.217L114.056 119.46L110.148 117.219L101.774 122.976Z" fill="#C83F43"/>
<path d="M113.861 119.729L114.457 119.386L110.236 116.933L110.148 117.219L109.871 117.41L113.861 119.729Z" fill="white"/>
<path d="M86.7291 121.762L83.4575 132.481L75.0836 138.239L81.4355 140.826L79.5318 151.465L86.7291 142.209L93.9264 143.162L92.0222 134.72L98.3741 124.805L90.0002 128.708L86.7291 121.762Z" fill="#E8A200"/>
<path d="M102.282 127.046L98.3741 124.805L92.3388 127.618C92.3388 127.618 92.3595 131.672 92.3388 131.768C92.3175 131.865 94.8262 131.985 94.9951 131.985C95.1646 131.985 102.282 127.046 102.282 127.046Z" fill="#C83F43"/>
<path d="M90.6368 124.003L87.3651 134.723L78.9912 140.48L85.3432 143.066L83.4389 153.705L90.6368 144.45L97.834 145.403L95.9298 136.961L102.282 127.046L93.9078 130.949L90.6368 124.003Z" fill="#F0A9AA"/>
<path d="M84.203 152.723L85.9961 142.707L80.2022 140.349L87.8605 135.084L90.7518 125.607L93.6294 131.717L101.699 127.957L102.282 127.046L93.9078 130.949L90.6362 124.003L87.3646 134.723L78.9906 140.48L85.3426 143.066L83.4384 153.705L84.203 152.723Z" fill="white"/>
<path d="M90.6368 124.003L86.7291 121.762L83.4575 132.481L87.3651 134.723L90.6368 124.003Z" fill="#C83F43"/>
<path d="M121.54 65.9269L118.269 76.6465L109.894 82.4034L116.247 84.9906L114.343 95.6291L121.54 86.3735L128.737 87.3268L126.833 78.8847L133.185 68.9703L124.812 72.8729L121.54 65.9269Z" fill="#E8A200"/>
<path d="M137.093 71.2113L133.185 68.9703L127.15 71.7829C127.15 71.7829 127.171 75.8369 127.15 75.9332C127.129 76.0296 129.638 76.1499 129.806 76.1499C129.975 76.1499 137.093 71.2113 137.093 71.2113Z" fill="#C83F43"/>
<path d="M114.343 95.6291L118.25 97.87L120.154 87.231C120.154 87.231 118.26 85.234 118.268 85.234C118.276 85.234 116.138 85.5955 116.138 85.5955L114.343 95.6291Z" fill="#C83F43"/>
<path d="M125.448 68.1678L122.176 78.8874L113.802 84.6444L120.155 87.2316L118.25 97.87L125.448 88.6145L132.645 89.5678L130.741 81.1256L137.093 71.2113L128.719 75.1139L125.448 68.1678Z" fill="#F0A9AA"/>
<path d="M119.014 96.8883L120.807 86.8722L115.014 84.5136L122.672 79.2489L125.563 69.7723L128.441 75.882L136.51 72.1221L137.093 71.2112L128.719 75.1138L125.448 68.1683L122.176 78.8879L113.802 84.6449L120.154 87.2315L118.25 97.8705L119.014 96.8883Z" fill="white"/>
<path d="M125.448 68.1678L121.54 65.9269L118.269 76.6465L122.176 78.8874L125.448 68.1678Z" fill="#C83F43"/>
<path d="M109.894 82.4034L113.802 84.6444L122.176 78.8874L118.269 76.6465L109.894 82.4034Z" fill="#C83F43"/>
<path d="M121.981 79.1569L122.576 78.8134L118.356 76.3601L118.269 76.6465L117.991 76.8376L121.981 79.1569Z" fill="white"/>
<path d="M94.8491 81.1898L91.5774 91.9088L83.2035 97.6658L89.5555 100.253L87.6518 110.891L94.8491 101.636L102.046 102.59L100.143 94.1471L106.495 84.2327L98.1207 88.1353L94.8491 81.1898Z" fill="#E8A200"/>
<path d="M110.402 86.4736L106.495 84.2327L100.459 87.0453C100.459 87.0453 100.48 91.0992 100.459 91.1956C100.439 91.2919 102.947 91.4123 103.116 91.4123C103.285 91.4123 110.402 86.4736 110.402 86.4736Z" fill="#C83F43"/>
<path d="M87.6518 110.891L91.5595 113.132L93.4637 102.493C93.4637 102.493 91.5698 100.496 91.578 100.496C91.5862 100.496 89.4476 100.858 89.4476 100.858L87.6518 110.891Z" fill="#C83F43"/>
<path d="M98.7567 83.4308L95.4851 94.1498L87.1112 99.9068L93.4631 102.494L91.5594 113.133L98.7567 103.877L105.954 104.831L104.05 96.388L110.402 86.4737L102.028 90.3763L98.7567 83.4308Z" fill="#F0A9AA"/>
<path d="M92.323 112.151L94.116 102.135L88.3227 99.7761L95.981 94.5113L98.8723 85.0347L101.75 91.1445L109.819 87.3845L110.403 86.4737L102.029 90.3763L98.7573 83.4308L95.4856 94.1504L87.1117 99.9073L93.4637 102.494L91.5594 113.133L92.323 112.151Z" fill="white"/>
<path d="M98.7567 83.4308L94.8491 81.1898L91.5774 91.9088L95.4851 94.1498L98.7567 83.4308Z" fill="#C83F43"/>
<path d="M83.2035 97.6658L87.1112 99.9067L95.4851 94.1498L91.5774 91.9088L83.2035 97.6658Z" fill="#C83F43"/>
<path d="M95.29 94.4192L95.8856 94.0757L91.6652 91.6224L91.5774 91.9088L91.3 92.0999L95.29 94.4192Z" fill="white"/>
</g>
<mask id="mask2_3495_1298" style="mask-type:luminance" maskUnits="userSpaceOnUse" x="61" y="27" width="113" height="101">
<path d="M61.8422 101.633L108.112 127.228L172.26 90.3495L173.255 34.8989L130.554 27.9644L63.7192 74.5231L61.8422 101.633Z" fill="white"/>
</mask>
<g mask="url(#mask2_3495_1298)">
<path d="M104.235 101.938C101.93 103.268 101.93 105.431 104.235 106.761L143.418 129.36C144.052 129.725 145.08 129.725 145.713 129.36C146.347 128.995 146.347 128.402 145.713 128.036L106.53 105.437C105.49 104.838 105.49 103.862 106.53 103.263L110.327 101.073C109.905 100.439 109.522 99.7792 109.148 99.1057L104.235 101.938Z" fill="#95BCCC"/>
<path d="M159.73 119.952L120.547 97.3526C118.242 96.0231 114.491 96.0231 112.186 97.3526L109.148 99.1052C109.522 99.7787 109.905 100.439 110.327 101.072L114.481 98.6762C115.521 98.0767 117.212 98.0767 118.252 98.6762L157.435 121.276C158.069 121.641 159.096 121.641 159.73 121.276C160.364 120.91 160.364 120.317 159.73 119.952Z" fill="#578B9F"/>
<path d="M160.201 120.661L160.205 65.6197L119.144 42.7525L113.401 42.3746L107.848 45.9674L104.441 48.9303L144.447 112.307L157.509 119.998L160.201 120.661Z" fill="#578B9F"/>
<path d="M145.015 127.612L157.289 120.534V67.3391L144.637 73.2142L145.015 127.612Z" fill="#114252"/>
<path d="M102.507 49.3566V104.308L145.613 128.939L146.188 128.709V73.6764L102.507 49.3566Z" fill="#95BCCC"/>
<path d="M126.751 49.8112L118.184 44.8944C117.138 44.4103 115.609 44.4414 114.639 45.0005L106.688 49.5864C106.072 49.9419 105.824 50.4286 105.938 50.8914L127.585 63.8138L144.973 74.4757L157.288 67.3391L126.751 49.8112Z" fill="white"/>
<path d="M144.637 72.8129V127.416V128.573V129.631C145.028 129.621 145.415 129.533 145.713 129.361C146.025 129.181 146.182 128.946 146.186 128.71L146.188 128.709V128.701V128.697V73.6764L144.637 72.8129Z" fill="#578B9F"/>
<path d="M160.205 66.3058V65.6198H159.986L159.919 66.0858L160.205 66.3058Z" fill="white"/>
<path d="M146.187 74.3896V73.6868L145.976 73.9851L146.187 74.3896Z" fill="white"/>
<path d="M143.418 74.3281L104.235 51.7288C101.93 50.3992 101.93 48.2361 104.235 46.9066L112.186 42.3208C114.491 40.9912 118.242 40.9912 120.547 42.3208L159.73 64.9201C160.364 65.2854 160.364 65.8783 159.73 66.2436C159.096 66.609 158.068 66.609 157.435 66.2436L118.252 43.6443C117.212 43.0449 115.521 43.0449 114.481 43.6443L106.53 48.2302C105.49 48.8296 105.49 49.8052 106.53 50.4047L145.713 73.004C146.347 73.3693 146.347 73.9622 145.713 74.3276C145.08 74.694 144.052 74.694 143.418 74.3281Z" fill="#95BCCC"/>
<path d="M133.206 100.381L112.845 88.6372V68.2467L133.206 79.9898V100.381Z" fill="white"/>
<path d="M159.73 66.2436C159.096 66.6089 158.068 66.6089 157.435 66.2436L118.252 43.6443C117.212 43.0448 115.521 43.0448 114.481 43.6443L106.53 48.2301C105.849 48.6227 105.617 49.1764 105.828 49.68C105.939 49.4143 106.171 49.1622 106.53 48.9553L114.481 44.3695C115.521 43.77 117.212 43.77 118.252 44.3695L157.435 66.9688C158.069 67.3341 159.096 67.3341 159.73 66.9688C160.21 66.6917 160.324 66.2844 160.077 65.9447C159.998 66.0531 159.883 66.1554 159.73 66.2436Z" fill="white"/>
<path d="M145.713 74.328C145.08 74.6933 144.052 74.6933 143.418 74.328L104.236 51.7287C103.243 51.1559 102.68 50.4285 102.542 49.6799C102.36 50.6697 102.923 51.6966 104.236 52.4533L143.418 75.0527C144.052 75.418 145.08 75.418 145.713 75.0527C146.194 74.7756 146.308 74.3689 146.061 74.0286C145.981 74.1375 145.867 74.2398 145.713 74.328Z" fill="white"/>
<path d="M86.2206 124.385C83.9158 125.714 83.9158 127.878 86.2206 129.207L125.403 151.806C126.037 152.172 127.065 152.172 127.698 151.806C128.332 151.441 128.332 150.848 127.698 150.483L88.5156 127.884C87.4758 127.284 87.4758 126.308 88.5156 125.708L92.3126 123.519C91.8908 122.884 91.5077 122.225 91.1333 121.552L86.2206 124.385Z" fill="#F0A9AA"/>
<path d="M141.716 142.398L102.533 119.799C100.228 118.469 96.477 118.469 94.1722 119.799L91.1338 121.552C91.5082 122.225 91.8913 122.885 92.3132 123.519L96.4672 121.123C97.507 120.523 99.1982 120.523 100.238 121.123L139.421 143.722C140.055 144.087 141.082 144.087 141.716 143.722C142.35 143.357 142.35 142.764 141.716 142.398Z" fill="#C83F43"/>
<path d="M142.187 143.107L142.191 88.0661L101.13 65.1994L95.387 64.821L89.834 68.4144L86.4266 71.3767L126.433 134.754L139.495 142.445L142.187 143.107Z" fill="#C83F43"/>
<path d="M127.001 150.059L139.275 142.98V89.7854L126.623 95.6605L127.001 150.059Z" fill="#DD7475"/>
<path d="M84.493 71.803V126.754L127.599 151.385L128.174 151.155V96.1233L84.493 71.803Z" fill="#F0A9AA"/>
<path d="M108.737 72.2576L100.17 67.3402C99.1246 66.8561 97.5948 66.8872 96.6252 67.4463L88.6742 72.0322C88.0584 72.3877 87.8104 72.8744 87.9243 73.3372L109.572 86.2596L126.96 96.922L139.275 89.7854L108.737 72.2576Z" fill="white"/>
<path d="M126.623 95.2593V149.862V151.02V152.077C127.014 152.067 127.4 151.979 127.699 151.807C128.011 151.627 128.167 151.393 128.172 151.157L128.174 151.156V151.147V151.143V96.1233L126.623 95.2593Z" fill="#C83F43"/>
<path d="M142.191 88.7526V88.066H141.972L141.905 88.5321L142.191 88.7526Z" fill="white"/>
<path d="M128.173 96.8365V96.1331L127.962 96.4314L128.173 96.8365Z" fill="white"/>
<path d="M125.404 96.775L86.2213 74.1757C83.916 72.8461 83.916 70.683 86.2213 69.3535L94.1723 64.7677C96.4771 63.4381 100.228 63.4381 102.533 64.7677L141.716 87.367C142.35 87.7323 142.35 88.3252 141.716 88.6905C141.082 89.0559 140.054 89.0559 139.421 88.6905L100.238 66.0912C99.1983 65.4918 97.5072 65.4918 96.4673 66.0912L88.5163 70.6771C87.4764 71.2765 87.4764 72.2521 88.5163 72.8516L127.699 95.4509C128.333 95.8162 128.333 96.4091 127.699 96.7745C127.065 97.1398 126.038 97.1403 125.404 96.775Z" fill="#F0A9AA"/>
<path d="M115.192 122.827L94.8311 111.084V90.693L115.192 102.437V122.827Z" fill="white"/>
<path d="M141.716 88.6905C141.082 89.0558 140.054 89.0558 139.421 88.6905L100.238 66.0912C99.1982 65.4917 97.507 65.4917 96.4672 66.0912L88.5162 70.677C87.8355 71.0696 87.6033 71.6233 87.8142 72.1269C87.9254 71.8612 88.1576 71.6091 88.5162 71.4022L96.4672 66.8164C97.507 66.2169 99.1982 66.2169 100.238 66.8164L139.421 89.4157C140.055 89.781 141.082 89.781 141.716 89.4157C142.196 89.1386 142.31 88.7314 142.063 88.3916C141.984 88.5 141.869 88.6018 141.716 88.6905Z" fill="white"/>
<path d="M127.699 96.7749C127.065 97.1402 126.037 97.1402 125.404 96.7749L86.2212 74.1756C85.2282 73.6034 84.6657 72.8754 84.5284 72.1268C84.3464 73.1166 84.9088 74.1435 86.2212 74.9002L125.404 97.4996C126.038 97.8649 127.066 97.8649 127.699 97.4996C128.179 97.2225 128.294 96.8158 128.046 96.4755C127.967 96.5838 127.853 96.6862 127.699 96.7749Z" fill="white"/>
<path d="M123.677 160.051L123.681 105.01L82.6193 82.1437L76.8766 81.7653L71.3236 85.3586L67.9163 88.3209L107.923 151.699L120.985 159.389L123.677 160.051Z" fill="#578B9F"/>
<path d="M108.491 167.003L120.764 159.925V106.73L108.112 112.605L108.491 167.003Z" fill="#114252"/>
<path d="M65.9826 88.7472V143.699L109.088 168.33L109.663 168.099V113.068L65.9826 88.7472Z" fill="#95BCCC"/>
<path d="M90.2264 89.2017L81.6595 84.2849C80.6137 83.8009 79.0839 83.8319 78.1138 84.391L70.1627 88.9769C69.5469 89.3324 69.2989 89.8191 69.4128 90.2819L91.0602 103.204L108.448 113.866L120.764 106.73L90.2264 89.2017Z" fill="white"/>
<path d="M108.112 112.203V132.786V166.806V167.964V169.021C108.503 169.011 108.89 168.923 109.189 168.751C109.5 168.571 109.657 168.337 109.662 168.101L109.663 168.1V168.091V168.087V113.068L108.112 112.203Z" fill="#578B9F"/>
<path d="M123.681 105.697V105.01H123.462L123.395 105.476L123.681 105.697Z" fill="white"/>
<path d="M109.663 113.781V113.077L109.451 113.376L109.663 113.781Z" fill="white"/>
<path d="M106.894 113.719L67.7102 91.1199C65.4049 89.7903 65.4049 87.6273 67.7102 86.2977L75.6613 81.7119C77.9661 80.3823 81.7173 80.3823 84.0221 81.7119L123.205 104.311C123.839 104.677 123.839 105.269 123.205 105.635C122.571 106 121.543 106 120.91 105.635L81.7271 83.0354C80.6873 82.436 78.9961 82.436 77.9563 83.0354L70.0052 87.6213C68.9654 88.2207 68.9654 89.1963 70.0052 89.7958L109.188 112.395C109.822 112.76 109.822 113.353 109.188 113.719C108.554 114.084 107.527 114.085 106.894 113.719Z" fill="#95BCCC"/>
<path d="M96.6819 139.771L76.3207 128.028V107.637L96.6819 119.381V139.771Z" fill="white"/>
<path d="M123.205 105.635C122.572 106 121.544 106 120.91 105.635L81.7276 83.0354C80.6878 82.436 78.9967 82.436 77.9568 83.0354L70.0058 87.6212C69.3251 88.0138 69.0929 88.5675 69.3038 89.0711C69.415 88.8054 69.6472 88.5533 70.0058 88.3464L77.9568 83.7606C78.9967 83.1612 80.6878 83.1612 81.7276 83.7606L120.91 106.36C121.544 106.725 122.572 106.725 123.205 106.36C123.686 106.083 123.8 105.676 123.553 105.336C123.474 105.444 123.359 105.546 123.205 105.635Z" fill="white"/>
<path d="M109.189 113.719C108.555 114.084 107.527 114.084 106.894 113.719L67.7103 91.1198C66.7173 90.5476 66.1548 89.8197 66.0175 89.071C65.8355 90.0608 66.3979 91.0877 67.7103 91.8444L106.893 114.444C107.527 114.809 108.555 114.809 109.188 114.444C109.668 114.167 109.783 113.76 109.535 113.42C109.457 113.528 109.342 113.63 109.189 113.719Z" fill="white"/>
</g>
<path opacity="0.5" d="M200.07 61.2968L190.679 55.8801L200.07 50.464L209.461 55.8807L200.07 61.2968Z" fill="#72A0B3"/>
<path d="M209.461 49.0038L200.07 54.4199V43.5876L209.461 38.1715V49.0038Z" fill="#C83F43"/>
<path d="M200.07 43.5876L190.68 38.1715L200.07 32.7554L209.461 38.1721L200.07 43.5876Z" fill="#F0A9AA"/>
<path d="M200.07 54.4199L190.68 49.0038V38.1715L200.07 43.5876V54.4199Z" fill="#F0A9AA"/>
<path d="M196.688 48.5682L194.061 47.053V44.0237L196.688 45.5383V48.5682Z" fill="white"/>
<path opacity="0.5" d="M9.77675 187.563L0 181.925L9.7762 176.286L19.553 181.925L9.77675 187.563Z" fill="#72A0B3"/>
<path d="M19.553 174.766L9.77675 180.404V169.127L19.553 163.489V174.766Z" fill="#72A0B3"/>
<path d="M9.77675 169.127L0 163.489L9.7762 157.85L19.553 163.489L9.77675 169.127Z" fill="#95BCCC"/>
<path d="M9.77675 180.404L0 174.766V163.489L9.77675 169.127V180.404Z" fill="#578B9F"/>
<path d="M6.2555 174.312L3.52124 172.735V169.581L6.2555 171.158V174.312Z" fill="white"/>
<path d="M100.658 14.3167L76.2302 0.228121C75.7468 -0.0506342 75.3097 -0.060977 74.9675 0.126856C74.9675 0.124679 74.9691 0.111066 74.9691 0.111066L72.5994 1.47871C72.5994 1.47871 73.6486 1.86091 74.2644 2.08631V19.857C74.2644 21.303 75.1446 22.9826 76.2297 23.6087L99.578 37.075V39.1603L101.972 37.7834L101.959 37.779C102.363 37.5329 102.622 36.9917 102.622 36.2137V18.0685C102.623 16.6224 101.743 14.9428 100.658 14.3167Z" fill="#C83F43"/>
<path d="M98.245 39.0867L73.8175 24.9976C72.7319 24.3715 71.8522 22.6919 71.8522 21.2464V3.10169C71.8522 1.65564 72.7324 0.991421 73.8175 1.61753L98.245 15.7067C99.3306 16.3328 100.21 18.0124 100.21 19.4579V37.6031C100.21 39.0486 99.33 39.7129 98.245 39.0867Z" fill="#F0A9AA"/>
<path d="M98.8445 15.275L74.417 1.18584C73.7298 0.789483 73.127 0.91307 72.7755 1.42213C73.0779 1.34318 73.4338 1.39545 73.8175 1.61704L98.245 15.7062C99.3306 16.3323 100.21 18.0119 100.21 19.4574V37.6021C100.21 38.1324 100.09 38.5549 99.8865 38.85C100.44 38.7057 100.81 38.1046 100.81 37.1703V19.0262C100.81 17.5807 99.9296 15.9011 98.8445 15.275Z" fill="white"/>
<path d="M82.0318 18.7452C82.0318 19.7949 81.2938 20.2207 80.3837 19.6958C79.4735 19.171 78.7356 17.8943 78.7356 16.844C78.7356 15.7938 79.4735 15.3686 80.3837 15.8934C81.2938 16.4188 82.0318 17.6955 82.0318 18.7452Z" fill="white"/>
<path d="M87.025 21.6253C87.025 22.675 86.2871 23.1008 85.377 22.576C84.4668 22.0511 83.7289 20.7744 83.7289 19.7242C83.7289 18.6739 84.4668 18.2487 85.377 18.7735C86.2871 19.2984 87.025 20.5751 87.025 21.6253Z" fill="white"/>
<path d="M92.0178 24.5049C92.0178 25.5551 91.2799 25.9803 90.3697 25.4555C89.4596 24.9306 88.7216 23.6539 88.7216 22.6037C88.7216 21.5534 89.4596 21.1282 90.3697 21.6531C91.2799 22.1779 92.0178 23.4552 92.0178 24.5049Z" fill="white"/>
</svg>
