<svg width="14" height="16" viewBox="0 0 14 16" fill="none" xmlns="http://www.w3.org/2000/svg">
<path d="M4.65625 4.625V6.5V4.625V6.5H9.34375V4.625C9.32422 3.96094 9.09961 3.4043 8.66992 2.95508C8.2207 2.52539 7.66406 2.30078 7 2.28125C6.33594 2.30078 5.7793 2.52539 5.33008 2.95508C4.90039 3.4043 4.67578 3.96094 4.65625 4.625ZM3.25 6.5V4.625V6.5V4.625C3.26953 3.57031 3.63086 2.68164 4.33398 1.95898C5.05664 1.25586 5.94531 0.894531 7 0.875C8.05469 0.894531 8.94336 1.25586 9.66602 1.95898C10.3691 2.68164 10.7305 3.57031 10.75 4.625V6.5H11.6875C12.2148 6.51953 12.6543 6.70508 13.0059 7.05664C13.3574 7.4082 13.543 7.84766 13.5625 8.375V14C13.543 14.5273 13.3574 14.9668 13.0059 15.3184C12.6543 15.6699 12.2148 15.8555 11.6875 15.875H2.3125C1.78516 15.8555 1.3457 15.6699 0.994141 15.3184C0.642578 14.9668 0.457031 14.5273 0.4375 14V8.375C0.457031 7.84766 0.642578 7.4082 0.994141 7.05664C1.3457 6.70508 1.78516 6.51953 2.3125 6.5H3.25ZM1.84375 8.375V14V8.375V14C1.86328 14.293 2.01953 14.4492 2.3125 14.4688H11.6875C11.9805 14.4492 12.1367 14.293 12.1562 14V8.375C12.1367 8.08203 11.9805 7.92578 11.6875 7.90625H2.3125C2.01953 7.92578 1.86328 8.08203 1.84375 8.375Z" fill="#939393"/>
</svg>
