<svg width="17" height="17" viewBox="0 0 17 17" fill="none" xmlns="http://www.w3.org/2000/svg">
<path d="M11.75 9.59375L15.25 11.0938C15.5208 11.2188 15.7292 11.4167 15.875 11.6875C16 11.9375 16.0312 12.2188 15.9688 12.5312L15.2188 16.0312C15.0521 16.6354 14.6458 16.9583 14 17C13.8125 17 13.625 17 13.4375 17C13.125 16.9792 12.8125 16.9583 12.5 16.9375C10.125 16.6458 8 15.8646 6.125 14.5938C4.25 13.3021 2.77083 11.6562 1.6875 9.65625C0.583333 7.65625 0.0208333 5.4375 0 3C0.0416667 2.35417 0.375 1.94792 1 1.78125L4.5 1.03125C4.79167 0.96875 5.0625 1.01042 5.3125 1.15625C5.58333 1.28125 5.78125 1.47917 5.90625 1.75L7.40625 5.25C7.61458 5.8125 7.48958 6.30208 7.03125 6.71875L5.78125 7.75C6.63542 9.20833 7.79167 10.3646 9.25 11.2188L10.2812 9.96875C10.6979 9.51042 11.1875 9.38542 11.75 9.59375ZM13.8125 15.5L14.4688 12.4062L11.3438 11.0625L10.4062 12.1875C10.1562 12.4583 9.86458 12.625 9.53125 12.6875C9.17708 12.7708 8.83333 12.7188 8.5 12.5312C6.8125 11.5312 5.46875 10.1875 4.46875 8.5C4.30208 8.16667 4.25 7.83333 4.3125 7.5C4.375 7.14583 4.54167 6.84375 4.8125 6.59375L5.9375 5.6875L4.59375 2.53125L1.5 3.21875C1.5625 5.48958 2.14583 7.54167 3.25 9.375C4.33333 11.2083 5.79167 12.6667 7.625 13.75C9.45833 14.8542 11.5208 15.4375 13.8125 15.5Z" fill="#939393"/>
</svg>
